<svg xmlns="http://www.w3.org/2000/svg" xmlns:xlink="http://www.w3.org/1999/xlink" width="500" zoomAndPan="magnify" viewBox="0 0 375 374.999991" height="500" preserveAspectRatio="xMidYMid meet" version="1.0"><defs><g/><clipPath id="8cdd1ef933"><path d="M 128.523438 127 L 246.273438 127 L 246.273438 156 L 128.523438 156 Z M 128.523438 127 " clip-rule="nonzero"/></clipPath><clipPath id="635f7daec9"><path d="M 145 152 L 231 152 L 231 217.976562 L 145 217.976562 Z M 145 152 " clip-rule="nonzero"/></clipPath><clipPath id="f6101c0bab"><path d="M 177 85.976562 L 205 85.976562 L 205 114 L 177 114 Z M 177 85.976562 " clip-rule="nonzero"/></clipPath></defs><g clip-path="url(#8cdd1ef933)"><path fill="#000000" d="M 139.527344 148.972656 C 109.90625 138.828125 148.09375 128.101562 167.410156 127.875 C 161.441406 129.371094 156.984375 129.753906 151.800781 132.410156 C 135.128906 140.953125 160.972656 147.949219 187.496094 148.339844 C 214.019531 147.949219 239.863281 140.945312 223.1875 132.410156 C 218.015625 129.761719 213.550781 129.375 207.582031 127.875 C 226.894531 128.101562 265.085938 138.828125 235.464844 148.972656 C 224.707031 153.417969 206.445312 155.84375 187.917969 155.886719 L 187.070312 155.886719 C 168.546875 155.84375 150.273438 153.414062 139.527344 148.972656 Z M 139.527344 148.972656 " fill-opacity="1" fill-rule="evenodd"/></g><g clip-path="url(#635f7daec9)"><path fill="#000000" d="M 185.160156 154.328125 Z M 186.367188 154.328125 Z M 145.003906 214.070312 L 155.226562 152.75 C 164.75 153.765625 174.925781 154.304688 185.160156 154.328125 L 186.367188 154.328125 C 196.652344 154.304688 206.886719 153.765625 216.457031 152.738281 L 230.007812 214.070312 C 206.238281 219.433594 167.960938 219.433594 145.003906 214.070312 Z M 145.003906 214.070312 " fill-opacity="1" fill-rule="evenodd"/></g><path fill="#ffbd59" d="M 207.523438 135.679688 C 207.523438 135.898438 207.386719 136.113281 207.113281 136.324219 C 206.839844 136.539062 206.433594 136.746094 205.898438 136.945312 C 205.363281 137.144531 204.707031 137.335938 203.929688 137.515625 C 203.152344 137.695312 202.265625 137.863281 201.277344 138.015625 C 200.289062 138.167969 199.210938 138.304688 198.046875 138.425781 C 196.882812 138.546875 195.652344 138.648438 194.359375 138.730469 C 193.066406 138.816406 191.734375 138.878906 190.359375 138.917969 C 188.988281 138.960938 187.601562 138.984375 186.199219 138.984375 C 184.800781 138.984375 183.414062 138.960938 182.039062 138.917969 C 180.667969 138.878906 179.332031 138.816406 178.039062 138.730469 C 176.746094 138.648438 175.519531 138.546875 174.355469 138.425781 C 173.191406 138.304688 172.113281 138.167969 171.121094 138.015625 C 170.132812 137.863281 169.25 137.695312 168.46875 137.515625 C 167.691406 137.335938 167.035156 137.144531 166.5 136.945312 C 165.964844 136.746094 165.558594 136.539062 165.285156 136.324219 C 165.015625 136.113281 164.878906 135.898438 164.878906 135.679688 C 164.878906 135.464844 165.015625 135.25 165.285156 135.035156 C 165.558594 134.824219 165.964844 134.617188 166.5 134.417969 C 167.035156 134.214844 167.691406 134.027344 168.46875 133.847656 C 169.25 133.664062 170.132812 133.5 171.121094 133.34375 C 172.113281 133.191406 173.191406 133.054688 174.355469 132.933594 C 175.519531 132.8125 176.746094 132.710938 178.039062 132.628906 C 179.332031 132.546875 180.667969 132.484375 182.039062 132.441406 C 183.414062 132.398438 184.800781 132.378906 186.199219 132.378906 C 187.601562 132.378906 188.988281 132.398438 190.359375 132.441406 C 191.734375 132.484375 193.066406 132.546875 194.359375 132.628906 C 195.652344 132.710938 196.882812 132.8125 198.046875 132.933594 C 199.210938 133.054688 200.289062 133.191406 201.277344 133.34375 C 202.265625 133.5 203.152344 133.664062 203.929688 133.847656 C 204.707031 134.027344 205.363281 134.214844 205.898438 134.417969 C 206.433594 134.617188 206.839844 134.824219 207.113281 135.035156 C 207.386719 135.25 207.523438 135.464844 207.523438 135.679688 Z M 207.523438 135.679688 " fill-opacity="1" fill-rule="nonzero"/><path fill="#ffbd59" d="M 215.367188 107.296875 L 217.339844 113.714844 L 223.761719 115.683594 L 217.339844 117.660156 L 215.367188 124.078125 L 213.398438 117.660156 L 206.976562 115.683594 L 213.398438 113.714844 Z M 215.367188 107.296875 " fill-opacity="1" fill-rule="evenodd"/><path fill="#ffbd59" d="M 212.09375 100.167969 L 213.074219 103.371094 L 216.289062 104.359375 L 213.074219 105.347656 L 212.09375 108.554688 L 211.105469 105.347656 L 207.894531 104.359375 L 211.105469 103.371094 Z M 212.09375 100.167969 " fill-opacity="1" fill-rule="evenodd"/><path fill="#ffbd59" d="M 201.097656 115.851562 L 202.9375 121.847656 L 208.925781 123.6875 L 202.9375 125.527344 L 201.097656 131.519531 L 199.257812 125.527344 L 193.261719 123.6875 L 199.257812 121.847656 Z M 201.097656 115.851562 " fill-opacity="1" fill-rule="evenodd"/><g clip-path="url(#f6101c0bab)"><path fill="#ffbd59" d="M 191.265625 85.976562 L 194.480469 96.445312 L 204.949219 99.667969 L 194.480469 102.878906 L 191.265625 113.351562 L 188.046875 102.878906 L 177.574219 99.667969 L 188.046875 96.445312 Z M 191.265625 85.976562 " fill-opacity="1" fill-rule="evenodd"/></g><path fill="#ffbd59" d="M 184.71875 121.429688 L 186.558594 127.421875 L 192.554688 129.269531 L 186.558594 131.109375 L 184.71875 137.097656 L 182.878906 131.109375 L 176.886719 129.269531 L 182.878906 127.421875 Z M 184.71875 121.429688 " fill-opacity="1" fill-rule="evenodd"/><g fill="#000000" fill-opacity="1"><g transform="translate(87.010537, 250.694573)"><g><path d="M 2.328125 -21.78125 L 11.796875 -21.78125 C 14.003906 -21.78125 15.765625 -21.242188 17.078125 -20.171875 C 18.390625 -19.097656 19.046875 -17.734375 19.046875 -16.078125 C 19.046875 -13.609375 17.609375 -11.941406 14.734375 -11.078125 C 16.203125 -10.867188 17.367188 -10.257812 18.234375 -9.25 C 19.109375 -8.238281 19.546875 -7.046875 19.546875 -5.671875 C 19.546875 -3.941406 18.910156 -2.5625 17.640625 -1.53125 C 16.367188 -0.507812 14.59375 0 12.3125 0 L 2.328125 0 Z M 7.640625 -17.75 L 7.640625 -13.03125 L 11.109375 -13.03125 C 11.867188 -13.03125 12.484375 -13.226562 12.953125 -13.625 C 13.421875 -14.019531 13.65625 -14.601562 13.65625 -15.375 C 13.65625 -16.15625 13.421875 -16.742188 12.953125 -17.140625 C 12.484375 -17.546875 11.867188 -17.75 11.109375 -17.75 Z M 7.640625 -4.03125 L 11.640625 -4.03125 C 12.359375 -4.03125 12.957031 -4.25 13.4375 -4.6875 C 13.914062 -5.125 14.15625 -5.722656 14.15625 -6.484375 C 14.15625 -7.253906 13.925781 -7.863281 13.46875 -8.3125 C 13.007812 -8.769531 12.421875 -9 11.703125 -9 L 7.640625 -9 Z M 7.640625 -4.03125 "/></g></g></g><g fill="#000000" fill-opacity="1"><g transform="translate(107.142007, 250.694573)"><g><path d="M 7.15625 -19.265625 C 6.5625 -18.671875 5.828125 -18.375 4.953125 -18.375 C 4.085938 -18.375 3.351562 -18.671875 2.75 -19.265625 C 2.15625 -19.867188 1.859375 -20.609375 1.859375 -21.484375 C 1.859375 -22.367188 2.15625 -23.109375 2.75 -23.703125 C 3.351562 -24.304688 4.085938 -24.609375 4.953125 -24.609375 C 5.828125 -24.609375 6.5625 -24.304688 7.15625 -23.703125 C 7.757812 -23.109375 8.0625 -22.367188 8.0625 -21.484375 C 8.0625 -20.609375 7.757812 -19.867188 7.15625 -19.265625 Z M 2.328125 0 L 2.328125 -17.3125 L 7.640625 -17.3125 L 7.640625 0 Z M 2.328125 0 "/></g></g></g><g fill="#000000" fill-opacity="1"><g transform="translate(116.323575, 250.694573)"><g><path d="M 7.640625 -17.3125 L 7.640625 -14.09375 C 8.878906 -16.363281 10.53125 -17.5 12.59375 -17.5 L 12.59375 -12.109375 L 11.296875 -12.109375 C 10.078125 -12.109375 9.160156 -11.816406 8.546875 -11.234375 C 7.941406 -10.648438 7.640625 -9.632812 7.640625 -8.1875 L 7.640625 0 L 2.328125 0 L 2.328125 -17.3125 Z M 7.640625 -17.3125 "/></g></g></g><g fill="#000000" fill-opacity="1"><g transform="translate(128.700151, 250.694573)"><g><path d="M 7.640625 -17.3125 L 7.640625 -14.765625 C 8.734375 -16.585938 10.476562 -17.5 12.875 -17.5 C 14.15625 -17.5 15.296875 -17.207031 16.296875 -16.625 C 17.304688 -16.050781 18.09375 -15.226562 18.65625 -14.15625 C 19.289062 -15.164062 20.117188 -15.972656 21.140625 -16.578125 C 22.171875 -17.191406 23.316406 -17.5 24.578125 -17.5 C 26.679688 -17.5 28.351562 -16.847656 29.59375 -15.546875 C 30.84375 -14.242188 31.46875 -12.429688 31.46875 -10.109375 L 31.46875 0 L 26.1875 0 L 26.1875 -9.40625 C 26.1875 -10.519531 25.890625 -11.378906 25.296875 -11.984375 C 24.710938 -12.597656 23.898438 -12.90625 22.859375 -12.90625 C 21.828125 -12.90625 21.015625 -12.597656 20.421875 -11.984375 C 19.835938 -11.378906 19.546875 -10.519531 19.546875 -9.40625 L 19.546875 0 L 14.28125 0 L 14.28125 -9.40625 C 14.28125 -10.519531 13.984375 -11.378906 13.390625 -11.984375 C 12.796875 -12.597656 11.984375 -12.90625 10.953125 -12.90625 C 9.921875 -12.90625 9.109375 -12.597656 8.515625 -11.984375 C 7.929688 -11.378906 7.640625 -10.519531 7.640625 -9.40625 L 7.640625 0 L 2.328125 0 L 2.328125 -17.3125 Z M 7.640625 -17.3125 "/></g></g></g><g fill="#000000" fill-opacity="1"><g transform="translate(161.549645, 250.694573)"><g><path d="M 7.15625 -19.265625 C 6.5625 -18.671875 5.828125 -18.375 4.953125 -18.375 C 4.085938 -18.375 3.351562 -18.671875 2.75 -19.265625 C 2.15625 -19.867188 1.859375 -20.609375 1.859375 -21.484375 C 1.859375 -22.367188 2.15625 -23.109375 2.75 -23.703125 C 3.351562 -24.304688 4.085938 -24.609375 4.953125 -24.609375 C 5.828125 -24.609375 6.5625 -24.304688 7.15625 -23.703125 C 7.757812 -23.109375 8.0625 -22.367188 8.0625 -21.484375 C 8.0625 -20.609375 7.757812 -19.867188 7.15625 -19.265625 Z M 2.328125 0 L 2.328125 -17.3125 L 7.640625 -17.3125 L 7.640625 0 Z M 2.328125 0 "/></g></g></g><g fill="#000000" fill-opacity="1"><g transform="translate(170.731216, 250.694573)"><g><path d="M 7.640625 -17.3125 L 7.640625 -14.765625 C 8.734375 -16.585938 10.476562 -17.5 12.875 -17.5 C 14.863281 -17.5 16.472656 -16.835938 17.703125 -15.515625 C 18.929688 -14.191406 19.546875 -12.390625 19.546875 -10.109375 L 19.546875 0 L 14.28125 0 L 14.28125 -9.40625 C 14.28125 -10.519531 13.984375 -11.378906 13.390625 -11.984375 C 12.796875 -12.597656 11.984375 -12.90625 10.953125 -12.90625 C 9.921875 -12.90625 9.109375 -12.597656 8.515625 -11.984375 C 7.929688 -11.378906 7.640625 -10.519531 7.640625 -9.40625 L 7.640625 0 L 2.328125 0 L 2.328125 -17.3125 Z M 7.640625 -17.3125 "/></g></g></g><g fill="#000000" fill-opacity="1"><g transform="translate(191.6692, 250.694573)"><g><path d="M 3.34375 -2.265625 C 1.820312 -3.921875 1.0625 -6.039062 1.0625 -8.625 C 1.0625 -11.207031 1.820312 -13.332031 3.34375 -15 C 4.875 -16.664062 6.738281 -17.5 8.9375 -17.5 C 11.144531 -17.5 12.84375 -16.679688 14.03125 -15.046875 L 14.03125 -17.3125 L 19.328125 -17.3125 L 19.328125 -0.09375 C 19.328125 2.320312 18.664062 4.335938 17.34375 5.953125 C 16.6875 6.785156 15.78125 7.425781 14.625 7.875 C 13.476562 8.332031 12.148438 8.5625 10.640625 8.5625 C 7.992188 8.5625 5.894531 8.023438 4.34375 6.953125 C 2.789062 5.878906 1.910156 4.234375 1.703125 2.015625 L 6.921875 2.015625 C 7.421875 3.316406 8.660156 3.96875 10.640625 3.96875 C 11.617188 3.96875 12.425781 3.640625 13.0625 2.984375 C 13.707031 2.335938 14.03125 1.3125 14.03125 -0.09375 L 14.03125 -2.515625 C 12.75 -0.691406 11.03125 0.21875 8.875 0.21875 C 6.71875 0.21875 4.875 -0.609375 3.34375 -2.265625 Z M 12.875 -5.484375 C 13.644531 -6.234375 14.03125 -7.289062 14.03125 -8.65625 C 14.03125 -10.019531 13.644531 -11.066406 12.875 -11.796875 C 12.113281 -12.535156 11.234375 -12.90625 10.234375 -12.90625 C 9.242188 -12.90625 8.363281 -12.53125 7.59375 -11.78125 C 6.832031 -11.039062 6.453125 -9.988281 6.453125 -8.625 C 6.453125 -7.257812 6.832031 -6.207031 7.59375 -5.46875 C 8.363281 -4.738281 9.242188 -4.375 10.234375 -4.375 C 11.234375 -4.375 12.113281 -4.742188 12.875 -5.484375 Z M 12.875 -5.484375 "/></g></g></g><g fill="#000000" fill-opacity="1"><g transform="translate(212.545144, 250.694573)"><g><path d="M 7.640625 -22.96875 L 7.640625 -14.765625 C 8.734375 -16.585938 10.476562 -17.5 12.875 -17.5 C 14.863281 -17.5 16.472656 -16.835938 17.703125 -15.515625 C 18.929688 -14.191406 19.546875 -12.390625 19.546875 -10.109375 L 19.546875 0 L 14.28125 0 L 14.28125 -9.40625 C 14.28125 -10.519531 13.984375 -11.378906 13.390625 -11.984375 C 12.796875 -12.597656 11.984375 -12.90625 10.953125 -12.90625 C 9.921875 -12.90625 9.109375 -12.597656 8.515625 -11.984375 C 7.929688 -11.378906 7.640625 -10.519531 7.640625 -9.40625 L 7.640625 0 L 2.328125 0 L 2.328125 -22.96875 Z M 7.640625 -22.96875 "/></g></g></g><g fill="#000000" fill-opacity="1"><g transform="translate(233.483128, 250.694573)"><g><path d="M 12.875 -5.484375 C 13.644531 -6.234375 14.03125 -7.289062 14.03125 -8.65625 C 14.03125 -10.019531 13.644531 -11.066406 12.875 -11.796875 C 12.113281 -12.535156 11.234375 -12.90625 10.234375 -12.90625 C 9.242188 -12.90625 8.363281 -12.53125 7.59375 -11.78125 C 6.832031 -11.039062 6.453125 -9.988281 6.453125 -8.625 C 6.453125 -7.257812 6.832031 -6.207031 7.59375 -5.46875 C 8.363281 -4.738281 9.242188 -4.375 10.234375 -4.375 C 11.234375 -4.375 12.113281 -4.742188 12.875 -5.484375 Z M 3.34375 -2.265625 C 1.820312 -3.921875 1.0625 -6.039062 1.0625 -8.625 C 1.0625 -11.207031 1.820312 -13.332031 3.34375 -15 C 4.875 -16.664062 6.738281 -17.5 8.9375 -17.5 C 11.144531 -17.5 12.84375 -16.679688 14.03125 -15.046875 L 14.03125 -17.3125 L 19.328125 -17.3125 L 19.328125 0 L 14.03125 0 L 14.03125 -2.515625 C 12.75 -0.691406 11.03125 0.21875 8.875 0.21875 C 6.71875 0.21875 4.875 -0.609375 3.34375 -2.265625 Z M 3.34375 -2.265625 "/></g></g></g><g fill="#000000" fill-opacity="1"><g transform="translate(254.359073, 250.694573)"><g><path d="M 7.640625 -17.3125 L 7.640625 -14.765625 C 8.734375 -16.585938 10.476562 -17.5 12.875 -17.5 C 14.15625 -17.5 15.296875 -17.207031 16.296875 -16.625 C 17.304688 -16.050781 18.09375 -15.226562 18.65625 -14.15625 C 19.289062 -15.164062 20.117188 -15.972656 21.140625 -16.578125 C 22.171875 -17.191406 23.316406 -17.5 24.578125 -17.5 C 26.679688 -17.5 28.351562 -16.847656 29.59375 -15.546875 C 30.84375 -14.242188 31.46875 -12.429688 31.46875 -10.109375 L 31.46875 0 L 26.1875 0 L 26.1875 -9.40625 C 26.1875 -10.519531 25.890625 -11.378906 25.296875 -11.984375 C 24.710938 -12.597656 23.898438 -12.90625 22.859375 -12.90625 C 21.828125 -12.90625 21.015625 -12.597656 20.421875 -11.984375 C 19.835938 -11.378906 19.546875 -10.519531 19.546875 -9.40625 L 19.546875 0 L 14.28125 0 L 14.28125 -9.40625 C 14.28125 -10.519531 13.984375 -11.378906 13.390625 -11.984375 C 12.796875 -12.597656 11.984375 -12.90625 10.953125 -12.90625 C 9.921875 -12.90625 9.109375 -12.597656 8.515625 -11.984375 C 7.929688 -11.378906 7.640625 -10.519531 7.640625 -9.40625 L 7.640625 0 L 2.328125 0 L 2.328125 -17.3125 Z M 7.640625 -17.3125 "/></g></g></g><g fill="#000000" fill-opacity="1"><g transform="translate(137.512613, 277.234405)"><g><path d="M 0.34375 -7.203125 L 0.34375 -8.84375 L 7.3125 -8.84375 L 7.3125 -7.203125 L 4.90625 -7.203125 L 4.90625 0 L 2.75 0 L 2.75 -7.203125 Z M 0.34375 -7.203125 "/></g></g></g><g fill="#000000" fill-opacity="1"><g transform="translate(145.164899, 277.234405)"><g><path d="M 3.09375 -9.3125 L 3.09375 -6 C 3.539062 -6.738281 4.25 -7.109375 5.21875 -7.109375 C 6.03125 -7.109375 6.6875 -6.835938 7.1875 -6.296875 C 7.6875 -5.753906 7.9375 -5.023438 7.9375 -4.109375 L 7.9375 0 L 5.796875 0 L 5.796875 -3.8125 C 5.796875 -4.269531 5.675781 -4.617188 5.4375 -4.859375 C 5.195312 -5.109375 4.863281 -5.234375 4.4375 -5.234375 C 4.019531 -5.234375 3.691406 -5.109375 3.453125 -4.859375 C 3.210938 -4.617188 3.09375 -4.269531 3.09375 -3.8125 L 3.09375 0 L 0.9375 0 L 0.9375 -9.3125 Z M 3.09375 -9.3125 "/></g></g></g><g fill="#000000" fill-opacity="1"><g transform="translate(153.975098, 277.234405)"><g><path d="M 3.921875 0.09375 C 2.898438 0.09375 2.0625 -0.234375 1.40625 -0.890625 C 0.75 -1.554688 0.421875 -2.429688 0.421875 -3.515625 C 0.421875 -4.609375 0.742188 -5.476562 1.390625 -6.125 C 2.046875 -6.78125 2.890625 -7.109375 3.921875 -7.109375 C 4.960938 -7.109375 5.820312 -6.785156 6.5 -6.140625 C 7.175781 -5.503906 7.515625 -4.617188 7.515625 -3.484375 C 7.515625 -3.242188 7.5 -3.019531 7.46875 -2.8125 L 2.625 -2.8125 C 2.664062 -2.5 2.804688 -2.242188 3.046875 -2.046875 C 3.285156 -1.847656 3.539062 -1.75 3.8125 -1.75 C 4.082031 -1.75 4.285156 -1.773438 4.421875 -1.828125 C 4.554688 -1.890625 4.65625 -1.945312 4.71875 -2 C 4.78125 -2.050781 4.863281 -2.140625 4.96875 -2.265625 L 7.296875 -2.265625 C 7.085938 -1.554688 6.679688 -0.984375 6.078125 -0.546875 C 5.472656 -0.117188 4.753906 0.09375 3.921875 0.09375 Z M 5.28125 -4.15625 C 5.238281 -4.476562 5.09375 -4.742188 4.84375 -4.953125 C 4.59375 -5.160156 4.296875 -5.265625 3.953125 -5.265625 C 3.609375 -5.265625 3.316406 -5.160156 3.078125 -4.953125 C 2.847656 -4.742188 2.703125 -4.476562 2.640625 -4.15625 Z M 5.28125 -4.15625 "/></g></g></g><g fill="#000000" fill-opacity="1"><g transform="translate(161.929451, 277.234405)"><g/></g></g><g fill="#000000" fill-opacity="1"><g transform="translate(165.705245, 277.234405)"><g><path d="M 10.953125 -8.84375 L 10.953125 0 L 8.796875 0 L 8.796875 -4.984375 L 6.75 0 L 5.15625 0 L 3.09375 -4.984375 L 3.09375 0 L 0.9375 0 L 0.9375 -8.84375 L 3.40625 -8.84375 L 5.953125 -2.75 L 8.484375 -8.84375 Z M 10.953125 -8.84375 "/></g></g></g><g fill="#000000" fill-opacity="1"><g transform="translate(177.599009, 277.234405)"><g><path d="M 5.21875 -2.234375 C 5.53125 -2.535156 5.6875 -2.960938 5.6875 -3.515625 C 5.6875 -4.066406 5.53125 -4.488281 5.21875 -4.78125 C 4.914062 -5.082031 4.5625 -5.234375 4.15625 -5.234375 C 3.75 -5.234375 3.390625 -5.082031 3.078125 -4.78125 C 2.773438 -4.476562 2.625 -4.050781 2.625 -3.5 C 2.625 -2.945312 2.773438 -2.519531 3.078125 -2.21875 C 3.390625 -1.925781 3.75 -1.78125 4.15625 -1.78125 C 4.5625 -1.78125 4.914062 -1.929688 5.21875 -2.234375 Z M 1.359375 -0.90625 C 0.734375 -1.582031 0.421875 -2.445312 0.421875 -3.5 C 0.421875 -4.550781 0.734375 -5.414062 1.359375 -6.09375 C 1.984375 -6.769531 2.738281 -7.109375 3.625 -7.109375 C 4.519531 -7.109375 5.207031 -6.773438 5.6875 -6.109375 L 5.6875 -7.03125 L 7.84375 -7.03125 L 7.84375 0 L 5.6875 0 L 5.6875 -1.015625 C 5.164062 -0.273438 4.46875 0.09375 3.59375 0.09375 C 2.726562 0.09375 1.984375 -0.238281 1.359375 -0.90625 Z M 1.359375 -0.90625 "/></g></g></g><g fill="#000000" fill-opacity="1"><g transform="translate(186.384031, 277.234405)"><g><path d="M 1.359375 -0.90625 C 0.734375 -1.582031 0.421875 -2.445312 0.421875 -3.5 C 0.421875 -4.550781 0.734375 -5.414062 1.359375 -6.09375 C 1.984375 -6.769531 2.738281 -7.109375 3.625 -7.109375 C 4.519531 -7.109375 5.207031 -6.773438 5.6875 -6.109375 L 5.6875 -7.03125 L 7.84375 -7.03125 L 7.84375 -0.03125 C 7.84375 0.945312 7.578125 1.765625 7.046875 2.421875 C 6.773438 2.753906 6.40625 3.007812 5.9375 3.1875 C 5.46875 3.375 4.925781 3.46875 4.3125 3.46875 C 3.238281 3.46875 2.382812 3.25 1.75 2.8125 C 1.125 2.382812 0.769531 1.71875 0.6875 0.8125 L 2.8125 0.8125 C 3.007812 1.34375 3.507812 1.609375 4.3125 1.609375 C 4.707031 1.609375 5.035156 1.472656 5.296875 1.203125 C 5.554688 0.941406 5.6875 0.53125 5.6875 -0.03125 L 5.6875 -1.015625 C 5.164062 -0.273438 4.46875 0.09375 3.59375 0.09375 C 2.726562 0.09375 1.984375 -0.238281 1.359375 -0.90625 Z M 5.21875 -2.234375 C 5.53125 -2.535156 5.6875 -2.960938 5.6875 -3.515625 C 5.6875 -4.066406 5.53125 -4.488281 5.21875 -4.78125 C 4.914062 -5.082031 4.5625 -5.234375 4.15625 -5.234375 C 3.75 -5.234375 3.390625 -5.082031 3.078125 -4.78125 C 2.773438 -4.476562 2.625 -4.050781 2.625 -3.5 C 2.625 -2.945312 2.773438 -2.519531 3.078125 -2.21875 C 3.390625 -1.925781 3.75 -1.78125 4.15625 -1.78125 C 4.5625 -1.78125 4.914062 -1.929688 5.21875 -2.234375 Z M 5.21875 -2.234375 "/></g></g></g><g fill="#000000" fill-opacity="1"><g transform="translate(195.169053, 277.234405)"><g><path d="M 2.90625 -7.8125 C 2.664062 -7.570312 2.367188 -7.453125 2.015625 -7.453125 C 1.660156 -7.453125 1.359375 -7.570312 1.109375 -7.8125 C 0.867188 -8.0625 0.75 -8.363281 0.75 -8.71875 C 0.75 -9.070312 0.867188 -9.367188 1.109375 -9.609375 C 1.359375 -9.859375 1.660156 -9.984375 2.015625 -9.984375 C 2.367188 -9.984375 2.664062 -9.859375 2.90625 -9.609375 C 3.15625 -9.367188 3.28125 -9.070312 3.28125 -8.71875 C 3.28125 -8.363281 3.15625 -8.0625 2.90625 -7.8125 Z M 0.9375 0 L 0.9375 -7.03125 L 3.09375 -7.03125 L 3.09375 0 Z M 0.9375 0 "/></g></g></g><g fill="#000000" fill-opacity="1"><g transform="translate(199.209161, 277.234405)"><g><path d="M 1.390625 -0.890625 C 0.742188 -1.546875 0.421875 -2.421875 0.421875 -3.515625 C 0.421875 -4.609375 0.742188 -5.476562 1.390625 -6.125 C 2.046875 -6.78125 2.890625 -7.109375 3.921875 -7.109375 C 4.785156 -7.109375 5.515625 -6.894531 6.109375 -6.46875 C 6.703125 -6.039062 7.097656 -5.429688 7.296875 -4.640625 L 4.96875 -4.640625 C 4.757812 -5.066406 4.425781 -5.28125 3.96875 -5.28125 C 3.507812 -5.28125 3.171875 -5.117188 2.953125 -4.796875 C 2.734375 -4.472656 2.625 -4.046875 2.625 -3.515625 C 2.625 -2.984375 2.734375 -2.554688 2.953125 -2.234375 C 3.171875 -1.910156 3.492188 -1.75 3.921875 -1.75 C 4.191406 -1.75 4.398438 -1.796875 4.546875 -1.890625 C 4.703125 -1.984375 4.84375 -2.144531 4.96875 -2.375 L 7.296875 -2.375 C 7.097656 -1.625 6.695312 -1.023438 6.09375 -0.578125 C 5.488281 -0.128906 4.765625 0.09375 3.921875 0.09375 C 2.890625 0.09375 2.046875 -0.234375 1.390625 -0.890625 Z M 1.390625 -0.890625 "/></g></g></g><g fill="#000000" fill-opacity="1"><g transform="translate(206.760762, 277.234405)"><g/></g></g><g fill="#000000" fill-opacity="1"><g transform="translate(210.536557, 277.234405)"><g><path d="M 1.734375 -1.203125 C 0.859375 -2.054688 0.421875 -3.132812 0.421875 -4.4375 C 0.421875 -5.75 0.859375 -6.832031 1.734375 -7.6875 C 2.617188 -8.539062 3.695312 -8.96875 4.96875 -8.96875 C 5.945312 -8.96875 6.816406 -8.707031 7.578125 -8.1875 C 8.347656 -7.664062 8.882812 -6.941406 9.1875 -6.015625 L 6.609375 -6.015625 C 6.273438 -6.660156 5.738281 -6.984375 5 -6.984375 C 4.257812 -6.984375 3.675781 -6.753906 3.25 -6.296875 C 2.832031 -5.835938 2.625 -5.21875 2.625 -4.4375 C 2.625 -3.664062 2.832031 -3.050781 3.25 -2.59375 C 3.675781 -2.132812 4.257812 -1.90625 5 -1.90625 C 5.738281 -1.90625 6.273438 -2.226562 6.609375 -2.875 L 9.1875 -2.875 C 8.882812 -1.945312 8.347656 -1.222656 7.578125 -0.703125 C 6.816406 -0.179688 5.945312 0.078125 4.96875 0.078125 C 3.695312 0.078125 2.617188 -0.347656 1.734375 -1.203125 Z M 1.734375 -1.203125 "/></g></g></g><g fill="#000000" fill-opacity="1"><g transform="translate(220.15226, 277.234405)"><g><path d="M 2.90625 -7.8125 C 2.664062 -7.570312 2.367188 -7.453125 2.015625 -7.453125 C 1.660156 -7.453125 1.359375 -7.570312 1.109375 -7.8125 C 0.867188 -8.0625 0.75 -8.363281 0.75 -8.71875 C 0.75 -9.070312 0.867188 -9.367188 1.109375 -9.609375 C 1.359375 -9.859375 1.660156 -9.984375 2.015625 -9.984375 C 2.367188 -9.984375 2.664062 -9.859375 2.90625 -9.609375 C 3.15625 -9.367188 3.28125 -9.070312 3.28125 -8.71875 C 3.28125 -8.363281 3.15625 -8.0625 2.90625 -7.8125 Z M 0.9375 0 L 0.9375 -7.03125 L 3.09375 -7.03125 L 3.09375 0 Z M 0.9375 0 "/></g></g></g><g fill="#000000" fill-opacity="1"><g transform="translate(224.192367, 277.234405)"><g><path d="M 3.921875 -1.828125 L 4.703125 -1.828125 L 4.703125 0 L 3.609375 0 C 2.816406 0 2.203125 -0.171875 1.765625 -0.515625 C 1.335938 -0.867188 1.125 -1.46875 1.125 -2.3125 L 1.125 -5.234375 L 0.46875 -5.234375 L 0.46875 -7.03125 L 1.125 -7.03125 L 1.125 -8.734375 L 3.28125 -8.734375 L 3.28125 -7.03125 L 4.6875 -7.03125 L 4.6875 -5.234375 L 3.28125 -5.234375 L 3.28125 -2.3125 C 3.28125 -1.988281 3.492188 -1.828125 3.921875 -1.828125 Z M 3.921875 -1.828125 "/></g></g></g><g fill="#000000" fill-opacity="1"><g transform="translate(229.415553, 277.234405)"><g><path d="M 2.78125 -0.140625 L 0.046875 -7.03125 L 2.5 -7.03125 L 4.0625 -2.4375 L 5.765625 -7.03125 L 8.015625 -7.03125 L 3.53125 3.34375 L 1.28125 3.34375 Z M 2.78125 -0.140625 "/></g></g></g></svg>