<svg xmlns="http://www.w3.org/2000/svg" xmlns:xlink="http://www.w3.org/1999/xlink" width="500" zoomAndPan="magnify" viewBox="0 0 375 374.999991" height="500" preserveAspectRatio="xMidYMid meet" version="1.0"><defs><g/><clipPath id="803dc05a2a"><path d="M 96.566406 179 L 107 179 L 107 218 L 96.566406 218 Z M 96.566406 179 " clip-rule="nonzero"/></clipPath></defs><path fill="#c49a6c" d="M 180.167969 132.234375 C 180.421875 132.234375 180.761719 132.242188 180.792969 132.507812 C 181.054688 133.855469 180.980469 135.179688 180.578125 136.488281 C 179.527344 139.429688 178.207031 142.242188 176.613281 144.929688 C 174.429688 148.519531 171.863281 151.886719 170.085938 155.730469 C 169.679688 156.371094 169.527344 157.066406 169.628906 157.816406 C 169.804688 159.320312 169.855469 160.824219 169.777344 162.335938 C 169.667969 163.296875 169.882812 164.175781 170.421875 164.980469 C 170.535156 165.105469 170.621094 165.25 170.675781 165.414062 C 170.824219 166.070312 171.085938 166.878906 170.476562 167.300781 C 169.769531 167.785156 169.273438 167.023438 168.78125 166.597656 C 167.425781 165.421875 166.605469 164.183594 167.253906 162.183594 C 167.695312 160.828125 166.964844 159.390625 166.507812 158.054688 C 166.039062 156.773438 165.847656 155.449219 165.929688 154.085938 C 165.988281 153.234375 166.222656 152.546875 167.1875 152.511719 C 168.65625 152.457031 169.222656 151.515625 169.535156 150.28125 C 170.527344 146.378906 171.59375 142.492188 172.472656 138.5625 C 172.890625 136.214844 173.722656 134.03125 174.96875 132.003906 C 176.160156 130.28125 176.699219 128.375 176.582031 126.285156 C 176.472656 122.566406 176.816406 118.890625 177.601562 115.257812 C 177.632812 115.09375 177.636719 114.921875 177.660156 114.753906 C 177.820312 113.636719 179.128906 112.535156 178.253906 111.488281 C 177.472656 110.746094 176.753906 109.945312 176.09375 109.09375 C 175.976562 108.976562 175.839844 108.9375 175.679688 108.972656 C 175.550781 109.082031 175.492188 109.21875 175.503906 109.386719 C 175.578125 109.859375 175.992188 110.296875 175.601562 110.808594 C 175.101562 111.414062 174.476562 111.828125 173.726562 112.054688 C 171.113281 112.972656 168.425781 113.617188 165.734375 114.273438 C 164.675781 114.535156 163.644531 114.886719 162.644531 115.328125 C 161.847656 115.679688 161.839844 116.328125 162.519531 116.910156 C 162.644531 117.023438 162.78125 117.121094 162.933594 117.199219 C 166.242188 118.753906 167.566406 121.667969 168.207031 125.011719 C 168.789062 128.058594 169.226562 131.132812 169.828125 134.175781 C 170.050781 135.289062 170.136719 136.539062 171.339844 137.230469 C 171.601562 137.40625 171.765625 137.644531 171.835938 137.953125 C 171.90625 138.257812 171.863281 138.546875 171.707031 138.820312 C 171.070312 140.5625 170.765625 142.398438 170.199219 144.144531 C 169.585938 145.496094 168.617188 146.507812 167.292969 147.179688 C 167.132812 147.230469 166.976562 147.214844 166.824219 147.132812 C 166.660156 147.066406 166.640625 146.875 166.789062 146.722656 C 168.414062 145.023438 167.796875 142.722656 168.375 140.738281 C 168.699219 139.277344 168.527344 137.878906 167.859375 136.542969 C 165.324219 130.460938 162.523438 124.53125 158.210938 119.449219 C 157.832031 119.003906 157.539062 118.480469 157.1875 118.007812 C 155.421875 115.625 155.023438 113.808594 157.863281 111.152344 C 161.621094 107.636719 165.683594 104.445312 171.03125 103.625 C 171.359375 103.578125 171.664062 103.367188 171.992188 103.324219 C 172.226562 103.316406 172.453125 103.261719 172.664062 103.152344 C 172.875 103.046875 173.054688 102.902344 173.199219 102.714844 C 173.347656 102.53125 173.449219 102.324219 173.503906 102.09375 C 173.5625 101.863281 173.566406 101.628906 173.519531 101.398438 C 173.558594 99.835938 174.042969 98.429688 174.976562 97.179688 C 175.152344 96.835938 175.414062 96.574219 175.75 96.386719 C 176.089844 96.199219 176.453125 96.121094 176.835938 96.15625 C 177.847656 96.097656 178.855469 96.160156 179.851562 96.355469 C 180.082031 96.421875 180.390625 96.492188 180.402344 96.171875 C 180.359375 95.914062 180.222656 95.730469 179.992188 95.617188 C 179.386719 95.308594 178.75 95.109375 178.078125 95.019531 C 176.546875 94.976562 175.175781 94.183594 173.550781 94.398438 C 172.058594 94.59375 171.660156 93.882812 171.832031 92.1875 C 171.929688 91.765625 171.878906 91.363281 171.671875 90.980469 C 171.597656 90.851562 171.496094 90.75 171.367188 90.671875 C 171.242188 90.59375 171.101562 90.546875 170.953125 90.539062 C 170.804688 90.527344 170.660156 90.554688 170.523438 90.617188 C 170.386719 90.679688 170.273438 90.769531 170.183594 90.886719 C 169.9375 91.238281 169.8125 91.628906 169.808594 92.054688 C 169.78125 92.421875 169.710938 92.785156 169.601562 93.136719 C 169.496094 93.492188 169.347656 93.828125 169.164062 94.148438 C 168.984375 94.472656 168.765625 94.769531 168.515625 95.039062 C 168.265625 95.3125 167.988281 95.554688 167.6875 95.765625 C 167.382812 95.976562 167.058594 96.148438 166.71875 96.289062 C 166.375 96.425781 166.019531 96.523438 165.65625 96.582031 C 165.292969 96.644531 164.925781 96.660156 164.558594 96.636719 C 164.1875 96.613281 163.828125 96.550781 163.472656 96.449219 C 162.933594 96.304688 162.476562 96.027344 162.101562 95.609375 C 161.730469 95.195312 161.5 94.710938 161.414062 94.160156 C 161.257812 91.691406 161.226562 89.234375 163.289062 87.363281 C 164.039062 86.6875 163.472656 86.4375 162.894531 86.148438 C 162.257812 85.894531 161.597656 85.792969 160.917969 85.839844 C 159.484375 85.882812 158.0625 85.773438 156.65625 85.511719 C 155.9375 85.386719 155.222656 85.40625 154.511719 85.570312 C 153.804688 85.738281 153.15625 86.039062 152.570312 86.472656 C 149.683594 88.34375 146.84375 90.304688 144.003906 92.25 C 143.460938 92.671875 143.0625 93.207031 142.808594 93.851562 C 142.199219 95.164062 141.390625 96.339844 140.386719 97.382812 C 140.222656 97.550781 139.925781 97.828125 139.816406 97.78125 C 139.53125 97.652344 139.703125 97.367188 139.785156 97.128906 C 139.992188 96.523438 140.839844 95.921875 140.335938 95.328125 C 139.613281 94.476562 138.746094 95.347656 138.042969 95.617188 C 137.21875 96.03125 136.449219 96.53125 135.734375 97.113281 C 135.117188 97.523438 134.738281 97.175781 134.632812 96.625 C 134.492188 95.902344 134.324219 95.140625 135.09375 94.550781 C 135.539062 94.214844 135.402344 93.996094 134.855469 93.726562 C 134.304688 93.457031 134.863281 93.210938 135.125 93.109375 C 136.355469 92.566406 137.617188 92.101562 138.902344 91.707031 C 140.597656 91.308594 142.023438 90.457031 143.179688 89.15625 C 145.222656 86.785156 148.03125 85.265625 149.957031 82.753906 C 150.730469 81.742188 152.230469 81.722656 153.457031 81.53125 C 156.015625 81.117188 158.480469 80.25 161.109375 80.167969 C 162.253906 80.175781 163.261719 79.8125 164.140625 79.082031 C 164.628906 78.738281 165.167969 78.511719 165.753906 78.410156 C 169.957031 77.191406 174.1875 77.09375 178.4375 78.125 C 181.148438 78.820312 183.863281 78.84375 186.585938 78.203125 C 190.636719 77.261719 192.570312 77.910156 194.65625 81.890625 C 195.765625 84.164062 196.742188 86.492188 197.582031 88.878906 C 197.917969 89.742188 198.246094 90.609375 198.628906 91.453125 C 199.382812 93.109375 200.277344 94.609375 202.386719 94.777344 C 202.796875 94.808594 203.097656 95.199219 203.304688 95.585938 L 203.316406 95.574219 C 202.984375 95.660156 202.257812 95.402344 202.535156 96.09375 C 202.960938 97.007812 203.449219 97.886719 204 98.734375 C 204.230469 99.027344 204.269531 99.347656 204.121094 99.691406 C 203.984375 99.863281 203.8125 99.980469 203.601562 100.035156 C 203.390625 100.089844 203.183594 100.078125 202.980469 99.992188 C 201.035156 99.457031 199.296875 98.492188 198.621094 96.511719 C 197.882812 94.710938 196.882812 93.066406 195.628906 91.578125 C 193.941406 89.367188 192.433594 87.039062 191.101562 84.597656 C 190.082031 82.652344 189.792969 82.546875 187.726562 83.042969 C 186.671875 83.296875 185.585938 83.472656 184.5625 83.820312 C 181.804688 84.746094 179.085938 83.566406 176.335938 83.753906 C 175.179688 83.832031 174.6875 82.773438 174.367188 81.753906 C 174.265625 81.4375 173.992188 80.984375 173.703125 81.117188 C 173.257812 81.324219 173.453125 81.816406 173.578125 82.230469 C 174.195312 84.273438 175.851562 84.808594 177.679688 84.980469 C 178.941406 85.117188 180.203125 85.125 181.46875 85.007812 C 181.847656 84.964844 182.222656 84.984375 182.597656 85.0625 C 182.96875 85.144531 183.320312 85.28125 183.648438 85.476562 C 183.976562 85.671875 184.261719 85.917969 184.511719 86.207031 C 184.757812 86.496094 184.953125 86.820312 185.09375 87.175781 C 185.464844 87.839844 185.75 88.535156 185.957031 89.265625 C 186.671875 92.457031 187.175781 95.679688 187.464844 98.9375 C 187.578125 100.367188 187.492188 101.78125 187.214844 103.1875 C 187.007812 105.457031 186.9375 107.734375 187 110.011719 C 186.875 115.261719 186.183594 120.429688 183.792969 125.160156 C 182.769531 127.574219 181.460938 129.820312 179.871094 131.898438 C 179.027344 132.265625 178.175781 132.621094 177.34375 133.011719 C 177.21875 133.117188 177.171875 133.25 177.199219 133.414062 C 177.300781 133.558594 177.4375 133.632812 177.613281 133.632812 C 178.121094 133.601562 178.597656 133.460938 179.042969 133.214844 C 179.492188 132.96875 179.863281 132.644531 180.167969 132.234375 Z M 176.074219 89.878906 L 175.6875 89.722656 L 175.847656 90.113281 C 177.351562 91.460938 177.605469 91.425781 179.191406 89.640625 C 180.351562 87.898438 180.351562 87.898438 179.117188 86.324219 L 178.722656 86.171875 L 178.886719 86.5625 C 179.46875 87.492188 178.941406 88.417969 178.855469 89.347656 C 178.015625 89.972656 177.160156 90.539062 176.074219 89.878906 Z M 184.695312 101.304688 C 184.554688 101.09375 184.515625 101.019531 184.46875 100.957031 C 184.421875 100.875 184.355469 100.835938 184.261719 100.847656 C 184.164062 100.859375 184.105469 100.910156 184.082031 101.003906 C 183.6875 101.917969 183.3125 102.839844 182.949219 103.765625 C 182.789062 104.179688 182.214844 104.75 182.851562 105.003906 C 183.273438 105.171875 183.59375 104.464844 183.761719 103.988281 C 184.089844 103.058594 184.410156 102.128906 184.695312 101.304688 Z M 158.851562 115.644531 C 158.800781 115.308594 158.734375 114.976562 158.644531 114.648438 C 158.613281 114.542969 158.410156 114.457031 158.269531 114.429688 C 157.980469 114.378906 157.804688 114.550781 157.851562 114.828125 C 157.917969 115.222656 158.015625 115.609375 158.148438 115.992188 C 158.21875 116.203125 158.410156 116.574219 158.472656 116.5625 C 158.839844 116.480469 158.8125 116.125 158.851562 115.648438 Z M 177.707031 87.726562 C 177.5625 87.679688 177.382812 87.558594 177.285156 87.605469 C 177.15625 87.707031 177.09375 87.839844 177.101562 88.003906 C 177.125 88.21875 177.3125 88.28125 177.476562 88.136719 C 177.578125 88.011719 177.652344 87.875 177.707031 87.726562 Z M 177.859375 102.167969 C 177.847656 102.039062 177.792969 101.933594 177.695312 101.847656 C 177.597656 101.765625 177.484375 101.726562 177.359375 101.734375 C 177.292969 101.734375 177.167969 101.820312 177.164062 101.875 C 177.15625 102 177.1875 102.109375 177.261719 102.207031 C 177.335938 102.304688 177.433594 102.367188 177.554688 102.390625 C 177.738281 102.453125 177.84375 102.363281 177.859375 102.164062 Z M 177.859375 102.167969 " fill-opacity="1" fill-rule="nonzero"/><path fill="#c2b59b" d="M 225.234375 126.65625 C 225.449219 126.691406 225.820312 126.617188 225.703125 126.988281 C 224.464844 130.957031 222.902344 134.753906 219.996094 137.847656 C 218.914062 138.925781 218.011719 140.136719 217.289062 141.488281 C 217.140625 141.691406 217.074219 141.917969 217.09375 142.171875 C 217.109375 142.421875 217.203125 142.640625 217.378906 142.824219 C 218.03125 143.65625 217.933594 144.628906 217.171875 144.914062 C 215.328125 145.609375 214.621094 147.246094 213.613281 148.671875 C 213.492188 148.925781 213.320312 149.140625 213.101562 149.320312 C 212.886719 149.5 212.640625 149.625 212.367188 149.695312 C 212.09375 149.765625 211.820312 149.777344 211.542969 149.726562 C 211.265625 149.675781 211.011719 149.570312 210.78125 149.40625 C 209.964844 149.019531 209.832031 148.648438 210.324219 147.8125 C 211.570312 145.707031 212.765625 143.570312 214.128906 141.546875 C 215.796875 138.894531 217.074219 136.066406 217.964844 133.058594 C 219.246094 129.199219 221.210938 125.664062 222.75 121.929688 C 223.46875 120.527344 224.542969 119.492188 225.972656 118.828125 C 227.984375 117.761719 230.050781 116.820312 232.175781 116.011719 C 232.488281 115.882812 232.804688 115.773438 233.128906 115.679688 C 235.539062 114.980469 237.308594 113.734375 237.3125 110.90625 C 237.363281 110.488281 237.453125 110.078125 237.582031 109.675781 C 237.761719 108.816406 238.160156 108.367188 239.101562 108.789062 C 239.195312 108.832031 239.410156 108.6875 239.511719 108.578125 C 239.550781 108.535156 239.4375 108.265625 239.339844 108.21875 C 235.867188 106.542969 234.734375 103.3125 233.773438 99.933594 C 233.558594 99.179688 233.351562 98.664062 234.417969 98.566406 C 234.59375 98.539062 234.734375 98.453125 234.839844 98.308594 C 234.945312 98.167969 234.984375 98.007812 234.957031 97.828125 C 234.9375 97.699219 234.546875 97.609375 234.3125 97.546875 C 234.144531 97.53125 233.976562 97.527344 233.808594 97.539062 C 231.214844 97.300781 230.378906 96.195312 230.9375 93.714844 C 231.609375 90.707031 231.621094 90.679688 228.808594 89.464844 C 227.730469 89 226.542969 88.78125 225.484375 88.289062 C 225.203125 88.140625 224.902344 88.042969 224.589844 87.988281 C 224.277344 87.933594 223.964844 87.929688 223.648438 87.976562 C 223.335938 88.019531 223.035156 88.113281 222.75 88.253906 C 222.464844 88.394531 222.207031 88.574219 221.980469 88.796875 C 220.050781 90.421875 217.757812 91.574219 216.0625 93.523438 C 215.667969 93.847656 215.371094 94.246094 215.160156 94.710938 C 214.953125 95.175781 214.859375 95.664062 214.878906 96.175781 C 214.882812 97.199219 214.691406 98.183594 214.304688 99.128906 C 214.222656 99.445312 214.109375 99.90625 213.722656 99.765625 C 213.414062 99.648438 213.519531 99.160156 213.578125 98.835938 C 213.65625 98.429688 213.800781 98.039062 213.898438 97.636719 C 213.90625 97.550781 213.871094 97.480469 213.800781 97.429688 C 213.660156 97.375 213.515625 97.367188 213.367188 97.402344 C 212.898438 97.664062 212.59375 98.058594 212.460938 98.578125 C 212.265625 99.234375 211.921875 99.808594 211.4375 100.292969 C 211.210938 100.519531 211.03125 100.910156 210.664062 100.78125 C 210.511719 100.726562 210.457031 100.351562 210.382812 100.113281 C 210.164062 99.289062 210.152344 98.460938 210.351562 97.628906 C 210.550781 96.796875 210.933594 96.0625 211.507812 95.429688 C 213.960938 92.238281 216.5 89.109375 219.054688 85.996094 C 220.375 84.390625 221.9375 83.171875 224.226562 83.503906 C 224.640625 83.5625 225.078125 83.460938 225.492188 83.519531 C 225.773438 83.605469 226.0625 83.628906 226.351562 83.585938 C 226.644531 83.542969 226.914062 83.4375 227.160156 83.277344 C 227.40625 83.113281 227.605469 82.90625 227.761719 82.652344 C 227.914062 82.402344 228.007812 82.128906 228.042969 81.835938 C 228.3125 80.828125 228.859375 80 229.683594 79.359375 C 233.265625 76.480469 237.117188 78.769531 239.097656 81.320312 C 239.578125 82.023438 239.921875 82.785156 240.128906 83.609375 C 240.652344 85.300781 240.621094 85.269531 242.238281 85.484375 C 245.933594 85.933594 249.460938 86.949219 252.828125 88.539062 C 254.996094 89.570312 256.726562 91.101562 258.019531 93.125 C 260.148438 96.191406 261.765625 99.503906 262.863281 103.074219 C 263.246094 104.316406 263.960938 105.324219 265.011719 106.089844 C 267.894531 108.429688 268.253906 111.605469 267.921875 115.003906 C 267.914062 115.136719 267.867188 115.25 267.777344 115.347656 C 267.683594 115.445312 267.574219 115.5 267.441406 115.507812 C 267.34375 115.507812 267.234375 115.289062 267.144531 115.160156 C 266.867188 114.632812 266.714844 114.070312 266.691406 113.472656 C 266.464844 111.820312 265.734375 110.433594 264.507812 109.308594 C 263.878906 108.726562 263.664062 108.816406 263.273438 109.648438 C 262.941406 110.28125 262.902344 110.933594 263.148438 111.605469 C 263.269531 111.917969 263.355469 112.238281 263.40625 112.570312 C 263.421875 112.699219 263.394531 112.816406 263.316406 112.925781 C 263.242188 113.03125 263.144531 113.101562 263.015625 113.132812 C 262.640625 113.25 262.257812 113.09375 262.234375 112.738281 C 262.121094 111.140625 261.484375 109.609375 261.65625 107.988281 C 261.730469 107.347656 261.675781 106.722656 261.5 106.105469 C 261.320312 105.492188 261.027344 104.933594 260.625 104.433594 C 258.550781 101.773438 256.875 98.839844 255.03125 96.027344 C 254.695312 95.433594 254.25 94.945312 253.6875 94.5625 C 253.128906 94.179688 252.511719 93.9375 251.835938 93.84375 C 249.9375 93.558594 248.085938 92.976562 246.207031 92.546875 C 245.636719 92.417969 244.980469 92.269531 244.539062 92.746094 C 244.011719 93.320312 244.238281 94.007812 244.539062 94.632812 C 245.019531 95.617188 245.488281 96.605469 246.007812 97.570312 C 248.347656 101.890625 250.019531 106.453125 251.019531 111.265625 C 251.484375 113.210938 251.316406 115.101562 250.515625 116.933594 C 248.835938 120.613281 247.777344 124.539062 245.945312 128.148438 C 244.757812 130.386719 243.328125 132.457031 241.65625 134.359375 C 241.386719 134.683594 241.101562 134.996094 240.8125 135.304688 C 240.457031 135.628906 240.15625 135.996094 239.910156 136.414062 C 239.667969 136.832031 239.492188 137.273438 239.382812 137.742188 C 239.277344 138.214844 239.238281 138.6875 239.277344 139.171875 C 239.3125 139.652344 239.417969 140.117188 239.597656 140.5625 C 240.792969 144.0625 240.171875 147.761719 240.054688 151.367188 C 240.011719 152.636719 240.351562 153.855469 240.226562 155.109375 C 240.242188 155.355469 240.335938 155.566406 240.503906 155.746094 C 241.519531 157.007812 241.566406 157.027344 240.882812 158.121094 C 240.378906 158.910156 240.042969 159.769531 239.875 160.691406 C 239.394531 163.519531 237.097656 164.304688 234.964844 165.277344 C 234.585938 165.453125 234.355469 165.164062 234.3125 164.773438 C 234.261719 164.339844 234.351562 163.941406 234.589844 163.574219 C 235.03125 162.859375 235.449219 162.128906 235.863281 161.398438 C 236.671875 160.007812 237.195312 158.515625 237.429688 156.921875 C 237.667969 155.328125 237.601562 153.746094 237.230469 152.179688 C 236.671875 148.949219 235.9375 145.761719 235.03125 142.609375 C 234.511719 140.949219 234.472656 139.277344 234.914062 137.597656 C 235.667969 134.414062 236.320312 131.207031 237.34375 128.089844 C 238.273438 125.273438 239.257812 122.507812 241.289062 120.261719 C 241.414062 120.144531 241.507812 120.007812 241.582031 119.855469 C 241.652344 119.703125 241.695312 119.542969 241.707031 119.371094 C 241.71875 119.203125 241.699219 119.039062 241.648438 118.878906 C 241.601562 118.714844 241.523438 118.566406 241.417969 118.433594 C 241.027344 117.691406 240.679688 116.925781 240.375 116.140625 C 240.28125 115.933594 240.199219 115.613281 239.933594 115.757812 C 239.777344 115.839844 239.71875 116.1875 239.703125 116.421875 C 239.699219 116.675781 239.734375 116.921875 239.8125 117.160156 C 240.054688 118.015625 241.050781 118.714844 240.464844 119.722656 C 239.796875 121.15625 238.75 122.207031 237.320312 122.875 C 235.15625 123.816406 232.914062 124.480469 230.589844 124.875 C 229.199219 125.222656 227.789062 125.414062 226.359375 125.457031 C 226.054688 125.457031 225.773438 125.539062 225.519531 125.699219 C 225.261719 125.863281 225.066406 126.082031 224.933594 126.355469 L 224.433594 126.871094 C 224.339844 127.003906 224.136719 127.207031 224.171875 127.253906 C 224.398438 127.59375 224.5625 127.347656 224.71875 127.152344 Z M 242.109375 96.4375 C 241.285156 96.878906 240.402344 97.082031 239.46875 97.039062 C 239.21875 97.039062 238.933594 97.152344 238.984375 97.421875 C 239.058594 97.667969 239.210938 97.835938 239.453125 97.929688 C 239.730469 98.007812 240.019531 98.039062 240.308594 98.019531 C 240.597656 98.003906 240.878906 97.941406 241.148438 97.832031 C 241.417969 97.722656 241.664062 97.574219 241.882812 97.382812 C 242.105469 97.195312 242.289062 96.976562 242.4375 96.726562 C 242.722656 96.507812 242.980469 96.125 242.664062 95.921875 C 242.234375 95.636719 242.253906 96.207031 242.109375 96.4375 Z M 225.976562 122.582031 C 225.914062 122.445312 225.882812 122.230469 225.777344 122.183594 C 225.546875 122.078125 225.292969 122.140625 225.253906 122.441406 C 225.242188 122.605469 225.296875 122.734375 225.425781 122.839844 C 225.535156 122.894531 225.648438 122.898438 225.761719 122.847656 C 225.878906 122.792969 225.949219 122.707031 225.976562 122.582031 Z M 237.535156 138.347656 C 237.410156 138.402344 237.3125 138.492188 237.25 138.617188 C 237.1875 138.738281 237.171875 138.871094 237.203125 139.003906 C 237.226562 139.152344 237.328125 139.390625 237.417969 139.402344 C 237.707031 139.4375 237.808594 139.183594 237.785156 138.957031 C 237.730469 138.742188 237.648438 138.539062 237.535156 138.347656 Z M 237.535156 138.347656 " fill-opacity="1" fill-rule="nonzero"/><path fill="#726658" d="M 153.296875 173.164062 C 153.296875 172.484375 153.285156 172.058594 153.296875 171.640625 C 153.308594 171.21875 153.261719 170.679688 153.691406 170.523438 C 154.25 170.320312 154.246094 171.003906 154.492188 171.28125 C 155.335938 172.21875 156.105469 173.222656 156.964844 174.148438 C 157.371094 174.585938 157.714844 174.355469 157.804688 173.820312 C 157.964844 172.824219 157.660156 171.789062 158.039062 170.8125 C 158.089844 170.679688 158.28125 170.605469 158.410156 170.5 C 158.484375 170.621094 158.644531 170.757812 158.621094 170.855469 C 158.125 172.996094 159.796875 174.464844 160.308594 176.292969 C 160.628906 177.121094 161.183594 177.734375 161.976562 178.132812 C 164.554688 179.929688 167.367188 181.210938 170.414062 181.984375 C 172.804688 182.5 174.902344 183.871094 177.085938 184.957031 C 178.644531 185.800781 180.253906 186.527344 181.910156 187.148438 C 182.371094 187.378906 182.859375 187.464844 183.375 187.40625 C 183.613281 187.351562 183.796875 187.222656 183.929688 187.019531 C 183.96875 186.890625 183.957031 186.769531 183.898438 186.65625 C 183.839844 186.539062 183.746094 186.457031 183.621094 186.414062 C 182.78125 186.03125 181.929688 185.671875 181.082031 185.304688 C 180.765625 185.171875 180.464844 185.007812 180.183594 184.808594 C 179.902344 184.609375 179.644531 184.386719 179.410156 184.132812 C 179.175781 183.878906 178.972656 183.605469 178.796875 183.308594 C 178.621094 183.011719 178.476562 182.699219 178.367188 182.371094 C 178.257812 182.046875 178.183594 181.710938 178.148438 181.367188 C 178.109375 181.027344 178.105469 180.683594 178.140625 180.339844 C 178.175781 179.996094 178.246094 179.660156 178.351562 179.332031 C 178.457031 179.003906 178.597656 178.691406 178.769531 178.394531 C 179.980469 176.070312 182.085938 175.457031 184.324219 174.929688 C 184.574219 174.902344 184.816406 174.921875 185.058594 174.996094 C 185.925781 175.175781 186.746094 175.488281 187.511719 175.933594 C 188.28125 176.378906 188.957031 176.9375 189.542969 177.601562 C 190.132812 178.265625 190.597656 179.007812 190.945312 179.828125 C 191.292969 180.644531 191.503906 181.496094 191.574219 182.382812 C 191.707031 183.671875 191.859375 183.988281 193.085938 183.882812 C 196.085938 183.625 198.425781 184.949219 200.75 186.578125 C 203.023438 188.171875 205.332031 189.710938 207.535156 191.40625 C 208.671875 192.328125 209.964844 192.894531 211.410156 193.101562 C 213.621094 193.445312 215.605469 194.308594 217.363281 195.695312 C 219.28125 197.140625 221.089844 196.792969 222.992188 195.84375 C 223.414062 195.636719 223.910156 194.875 224.230469 195.3125 C 224.785156 196.074219 225.808594 195.929688 226.289062 196.667969 C 226.398438 196.8125 226.433594 196.972656 226.398438 197.148438 C 226.359375 197.324219 226.261719 197.457031 226.101562 197.542969 C 224.890625 198.328125 223.570312 199.199219 222.128906 198.824219 C 220.308594 198.449219 218.46875 198.328125 216.613281 198.453125 C 215.339844 198.492188 214.09375 198.320312 212.875 197.945312 C 211.660156 197.570312 210.535156 197.007812 209.503906 196.257812 C 206.855469 194.445312 204.027344 192.976562 201.023438 191.847656 C 200.039062 191.535156 199.203125 190.996094 198.515625 190.226562 C 198.367188 190.035156 198.289062 189.433594 197.832031 189.871094 C 197.6875 190.09375 197.667969 190.328125 197.765625 190.574219 C 199.429688 194 201.125 197.40625 204.707031 199.300781 C 205.589844 199.730469 206.359375 200.3125 207.019531 201.039062 C 207.679688 201.769531 208.179688 202.59375 208.519531 203.515625 C 209.230469 205.449219 210.40625 207.039062 212.039062 208.289062 C 214.058594 209.847656 215.800781 211.667969 217.269531 213.753906 C 217.792969 214.558594 218.507812 215.109375 219.417969 215.40625 C 221.691406 216.332031 223.808594 217.53125 225.769531 219.003906 C 226.273438 219.324219 226.707031 219.722656 227.066406 220.199219 C 228.925781 222.824219 231.542969 224.777344 233.417969 227.386719 C 233.703125 227.757812 234.054688 228.046875 234.472656 228.253906 C 234.890625 228.460938 235.332031 228.570312 235.796875 228.570312 C 237.097656 228.714844 237.78125 229.40625 237.589844 230.546875 C 237.203125 232.804688 238.648438 234.332031 239.472656 236.109375 C 239.625 236.433594 240.261719 236.636719 239.757812 237.097656 C 239.347656 237.476562 238.902344 237.109375 238.640625 236.882812 C 236.957031 235.59375 235.496094 234.085938 234.265625 232.355469 C 233.632812 231.257812 232.835938 230.292969 231.882812 229.457031 C 230.925781 228.625 229.859375 227.972656 228.6875 227.492188 C 226.980469 226.792969 225.429688 225.726562 223.773438 224.894531 C 222.03125 224.023438 220.460938 222.910156 219.058594 221.558594 C 217.109375 219.691406 214.875 218.144531 213.109375 216.078125 C 212.652344 215.558594 212.097656 215.183594 211.445312 214.957031 C 211.246094 214.882812 211.082031 214.882812 211.035156 215.078125 C 210.988281 215.238281 211.007812 215.386719 211.089844 215.53125 C 211.277344 215.699219 211.472656 215.855469 211.675781 216 C 211.835938 216.140625 212.121094 216.242188 211.996094 216.523438 C 211.972656 216.578125 211.6875 216.550781 211.542969 216.503906 C 209.273438 215.785156 207.195312 214.699219 205.308594 213.246094 C 203.597656 211.898438 203.714844 209.980469 204.03125 208.128906 C 204.277344 207.410156 204.410156 206.675781 204.429688 205.917969 C 204.351562 205.324219 204.730469 204.289062 203.847656 204.3125 C 203.28125 204.328125 203.808594 205.304688 203.738281 205.851562 C 203.710938 206.359375 203.585938 206.839844 203.359375 207.292969 C 202.546875 208.695312 202.84375 210.15625 202.929688 211.691406 C 203.128906 215.550781 204.707031 219.242188 204.230469 223.167969 C 204.183594 223.460938 204.191406 223.757812 204.253906 224.050781 C 204.320312 224.34375 204.4375 224.613281 204.609375 224.863281 C 204.777344 225.109375 204.988281 225.316406 205.238281 225.484375 C 205.488281 225.648438 205.757812 225.761719 206.054688 225.824219 C 207.007812 226.148438 207.972656 226.429688 208.921875 226.773438 C 211.613281 227.742188 213.496094 229.867188 215.667969 231.574219 C 215.988281 231.851562 216.289062 232.148438 216.566406 232.464844 C 216.671875 232.59375 216.792969 232.699219 216.941406 232.777344 C 217.085938 232.859375 217.242188 232.90625 217.40625 232.921875 C 217.574219 232.9375 217.734375 232.921875 217.894531 232.871094 C 218.050781 232.820312 218.191406 232.738281 218.320312 232.628906 C 219.984375 231.675781 220.527344 231.890625 220.992188 233.65625 C 221.082031 234.253906 221.332031 234.777344 221.742188 235.222656 C 222.152344 235.667969 222.648438 235.960938 223.234375 236.105469 C 224.167969 236.3125 224.964844 236.757812 225.628906 237.445312 C 226.273438 238.148438 227.140625 238.097656 227.933594 238.332031 C 228.164062 238.445312 228.320312 238.625 228.402344 238.867188 C 228.429688 238.992188 228.417969 239.113281 228.359375 239.230469 C 228.304688 239.34375 228.21875 239.429688 228.105469 239.488281 C 227.617188 239.886719 227.0625 240.042969 226.441406 239.945312 C 224.257812 239.429688 221.960938 239.445312 219.984375 238.035156 C 218.429688 236.996094 216.75 236.226562 214.953125 235.722656 C 210.160156 234.132812 205.476562 232.273438 200.898438 230.152344 C 199.996094 229.789062 199.351562 229.164062 198.960938 228.277344 C 197.019531 224.164062 195.40625 219.925781 194.128906 215.558594 C 193.925781 214.828125 193.816406 214.085938 193.800781 213.328125 C 193.878906 211.550781 193.734375 209.792969 193.367188 208.050781 C 193.144531 206.667969 193.363281 205.359375 194.019531 204.125 C 194.261719 203.496094 194.605469 202.910156 194.871094 202.292969 C 194.960938 202.085938 195.046875 201.785156 194.707031 201.707031 C 194.535156 201.695312 194.390625 201.757812 194.28125 201.890625 C 194.039062 202.234375 193.820312 202.59375 193.625 202.96875 C 193.414062 203.363281 193.3125 203.105469 193.199219 202.90625 C 193.09375 202.773438 193.019531 202.621094 192.980469 202.453125 C 192.917969 200.125 191.324219 198.84375 189.621094 197.742188 C 187.988281 196.6875 186.484375 195.476562 185.109375 194.105469 C 183.4375 192.445312 181.4375 191.421875 179.117188 191.027344 C 176.539062 190.46875 174.164062 189.441406 171.992188 187.945312 C 170.335938 186.769531 168.53125 185.90625 166.578125 185.355469 C 165.519531 185.046875 164.542969 184.570312 163.640625 183.933594 C 162.742188 183.296875 161.96875 182.53125 161.324219 181.636719 C 160.097656 179.980469 158.523438 178.785156 156.597656 178.050781 C 155.363281 177.636719 154.046875 177.121094 153.511719 175.65625 C 153.300781 174.835938 153.230469 174.007812 153.296875 173.164062 Z M 201.644531 226.558594 C 201.796875 226.757812 201.964844 226.941406 202.144531 227.109375 C 202.257812 227.203125 202.496094 227.308594 202.578125 227.253906 C 202.859375 227.070312 202.738281 226.796875 202.566406 226.625 C 202.375 226.46875 202.167969 226.335938 201.949219 226.226562 C 201.609375 225.882812 201.28125 225.527344 200.925781 225.207031 C 200.6875 224.992188 200.339844 224.765625 200.101562 225.097656 C 199.882812 225.390625 200.1875 225.671875 200.398438 225.898438 C 200.726562 226.285156 201.140625 226.503906 201.644531 226.558594 Z M 201.644531 226.558594 " fill-opacity="1" fill-rule="nonzero"/><path fill="#9b8579" d="M 264.785156 179.378906 L 264.625 179.53125 C 263.847656 179.578125 263.492188 180.234375 263.074219 180.71875 C 261.644531 182.347656 259.972656 183.660156 258.050781 184.65625 C 256.128906 185.652344 254.089844 186.265625 251.9375 186.496094 C 250.453125 186.765625 248.957031 186.941406 247.445312 187.019531 C 246.808594 187.0625 246.191406 186.972656 245.59375 186.753906 C 244.992188 186.53125 244.464844 186.199219 244.007812 185.75 C 243.714844 185.445312 243.402344 185.164062 243.070312 184.90625 C 241.699219 183.882812 241.457031 183.960938 240.78125 185.5625 C 240.703125 185.714844 240.644531 185.871094 240.601562 186.035156 C 240.316406 187.65625 239.976562 188.953125 237.707031 188.265625 C 236.953125 188.039062 235.875 188.949219 234.925781 189.277344 C 234.59375 189.414062 234.246094 189.5 233.886719 189.535156 C 233.523438 189.566406 233.167969 189.542969 232.816406 189.464844 C 232.460938 189.386719 232.128906 189.257812 231.816406 189.074219 C 231.503906 188.890625 231.226562 188.667969 230.980469 188.398438 C 230.75 188.15625 230.566406 187.882812 230.433594 187.574219 C 230.132812 186.851562 230.535156 186.109375 231.308594 186.207031 C 233.457031 186.480469 235.203125 185.308594 237.125 184.777344 C 237.496094 184.699219 237.8125 184.519531 238.066406 184.238281 C 238.324219 183.957031 238.472656 183.625 238.515625 183.246094 C 239.308594 180.074219 240.796875 177.273438 242.976562 174.839844 C 246.722656 170.535156 251.667969 169.011719 257.273438 169.460938 C 258.4375 169.554688 259.191406 170.46875 260.175781 170.921875 C 260.386719 171.019531 260.78125 171.128906 260.859375 171.039062 C 261.167969 170.683594 260.847656 170.441406 260.566406 170.273438 C 259.574219 169.675781 259.492188 168.863281 259.5625 167.734375 C 259.664062 166.039062 260.09375 164.433594 260.855469 162.914062 C 261.632812 161.324219 262.269531 159.65625 263.1875 158.15625 C 263.453125 157.824219 263.597656 157.445312 263.625 157.023438 C 263.652344 156.597656 263.550781 156.203125 263.328125 155.84375 C 263.105469 155.484375 262.988281 155.09375 262.980469 154.671875 C 262.96875 154.25 263.066406 153.855469 263.273438 153.484375 C 263.734375 152.535156 264.460938 151.871094 265.449219 151.5 C 266.328125 151.121094 266.851562 151.789062 267.460938 152.195312 C 267.976562 152.535156 268.222656 152.316406 268.304688 151.796875 C 268.65625 149.648438 269.109375 147.507812 269.304688 145.347656 C 269.589844 142.910156 270.226562 140.570312 271.210938 138.324219 C 271.691406 137.234375 271.917969 136.09375 271.894531 134.902344 C 271.835938 133.261719 272.566406 131.636719 271.914062 129.972656 C 271.789062 129.433594 271.910156 128.957031 272.28125 128.542969 C 272.371094 128.410156 272.457031 128.273438 272.546875 128.140625 C 272.636719 128.28125 272.707031 128.433594 272.753906 128.59375 C 273.125 131.136719 274.015625 133.585938 273.808594 136.238281 C 273.761719 138.597656 273.515625 140.9375 273.066406 143.253906 C 272.851562 144.097656 272.925781 144.59375 273.914062 144.53125 C 275.1875 144.441406 275.71875 145.273438 276.078125 146.273438 C 277.148438 149.257812 277.996094 152.4375 276.601562 155.359375 C 275.539062 157.589844 275.476562 159.835938 275.007812 162.101562 C 274.476562 164.898438 273.503906 167.535156 272.089844 170.007812 C 270.679688 172.480469 268.90625 174.65625 266.765625 176.535156 C 266.035156 177.175781 265.109375 177.773438 265.222656 178.976562 L 265.089844 179.082031 M 269.863281 163.363281 L 270.015625 162.976562 L 269.632812 163.132812 L 269.097656 163.613281 C 268.59375 164.011719 268.242188 164.515625 268.046875 165.125 C 265.839844 166.054688 264.609375 165.230469 264.757812 162.953125 C 264.824219 162.359375 265.019531 161.816406 265.347656 161.324219 C 265.484375 161.089844 265.425781 160.832031 265.113281 160.789062 C 264.941406 160.765625 264.796875 160.816406 264.675781 160.941406 C 264.078125 162.03125 263.382812 163.082031 263.925781 164.457031 C 264.164062 165.054688 264.542969 165.539062 265.066406 165.910156 C 265.585938 166.28125 266.167969 166.480469 266.8125 166.507812 C 267.855469 166.679688 268.183594 166.257812 268.378906 165.421875 C 268.917969 165.050781 269.253906 164.542969 269.390625 163.898438 Z M 248.90625 184.640625 C 249.175781 184.632812 249.4375 184.582031 249.691406 184.484375 C 252.167969 183.253906 254.636719 182 257.097656 180.730469 C 257.253906 180.65625 257.375 180.542969 257.460938 180.394531 C 257.546875 180.246094 257.585938 180.085938 257.574219 179.914062 C 257.589844 179.644531 257.550781 179.386719 257.460938 179.132812 C 257.367188 178.878906 257.230469 178.65625 257.046875 178.460938 C 256.859375 178.265625 256.644531 178.113281 256.398438 178.007812 C 256.148438 177.902344 255.890625 177.851562 255.621094 177.851562 C 255.117188 177.8125 254.613281 177.8125 254.109375 177.851562 C 252.105469 178.0625 250.34375 177.195312 248.523438 176.59375 C 248.207031 176.492188 247.742188 176.40625 247.890625 175.757812 C 248.046875 175.078125 247.59375 175.113281 247.167969 175.402344 C 246.679688 175.773438 246.390625 176.261719 246.296875 176.867188 C 246.027344 178.015625 245.617188 179.113281 245.066406 180.160156 C 244.75 180.734375 243.910156 181.214844 244.140625 181.824219 C 244.335938 182.355469 245.097656 182.695312 245.632812 183.085938 C 246.167969 183.476562 246.753906 183.820312 247.289062 184.21875 C 247.777344 184.554688 248.316406 184.695312 248.90625 184.640625 Z M 248.90625 184.640625 " fill-opacity="1" fill-rule="nonzero"/><path fill="#9b8579" d="M 264.976562 178.847656 L 265.109375 178.746094 C 265.796875 180.011719 265.472656 181.34375 265.339844 182.664062 C 265.277344 182.910156 265.199219 183.152344 265.105469 183.386719 C 264.824219 184.613281 264.203125 185.898438 264.386719 187.054688 C 264.546875 188.101562 265.636719 188.988281 266.238281 189.992188 C 267.289062 192.035156 267.882812 194.203125 268.015625 196.5 C 268.101562 197.171875 268.117188 197.847656 268.070312 198.523438 C 267.996094 199.121094 268.070312 199.699219 268.292969 200.261719 C 268.519531 200.820312 268.863281 201.289062 269.328125 201.671875 C 269.777344 202.058594 270.164062 202.5 270.488281 202.996094 C 270.820312 203.492188 271.011719 204.070312 270.371094 204.523438 C 268.464844 205.863281 268.089844 208 267.621094 210.03125 C 267.445312 210.640625 267.152344 211.191406 266.746094 211.679688 C 266.339844 212.167969 265.851562 212.554688 265.28125 212.835938 C 265.175781 212.914062 265.058594 212.953125 264.929688 212.949219 C 264.800781 212.945312 264.683594 212.902344 264.582031 212.820312 C 264.289062 212.582031 264.132812 212.234375 264.367188 211.941406 C 266.480469 209.308594 265.488281 205.921875 266.53125 203.007812 C 266.878906 202.042969 266.144531 200.871094 265.585938 199.949219 C 264.273438 197.691406 262.847656 195.507812 261.316406 193.394531 C 260.222656 191.984375 259.5 190.40625 259.152344 188.65625 C 259.105469 188.40625 259.117188 188.148438 259.085938 187.898438 C 258.984375 186.996094 258.296875 186.144531 258.730469 185.203125 C 259.113281 184.363281 260.179688 184.367188 260.753906 183.808594 C 262.15625 182.441406 264.097656 181.5 264.527344 179.3125 L 264.6875 179.160156 " fill-opacity="1" fill-rule="nonzero"/><path fill="#594a42" d="M 114.195312 159.976562 C 113.898438 159.320312 113.75 158.636719 113.746094 157.914062 C 113.746094 157.195312 113.886719 156.507812 114.179688 155.851562 C 114.28125 155.507812 114.226562 155.128906 113.851562 155.042969 C 113.480469 154.957031 113.230469 155.265625 113.171875 155.628906 C 112.933594 156.605469 112.8125 157.597656 112.804688 158.605469 C 112.859375 159.378906 113.09375 160.09375 113.507812 160.746094 C 113.921875 161.398438 114.46875 161.914062 115.144531 162.289062 C 117.316406 163.570312 117.777344 165.554688 117.371094 167.921875 C 117.234375 169.582031 116.566406 170.992188 115.371094 172.152344 C 114.148438 173.210938 114.496094 174.691406 114.648438 175.96875 C 115.21875 180.625 115.988281 185.257812 116.585938 189.914062 C 116.597656 190.226562 116.65625 190.535156 116.761719 190.832031 C 116.867188 191.128906 117.015625 191.402344 117.207031 191.652344 C 117.398438 191.902344 117.625 192.121094 117.882812 192.300781 C 118.140625 192.484375 118.417969 192.621094 118.71875 192.714844 C 119.574219 193.023438 120.382812 193.429688 121.140625 193.933594 C 121.898438 194.4375 122.582031 195.023438 123.199219 195.695312 C 123.8125 196.367188 124.339844 197.101562 124.773438 197.898438 C 125.210938 198.699219 125.546875 199.539062 125.777344 200.417969 C 126.464844 202.671875 127.25 204.890625 128.042969 207.109375 C 128.515625 208.425781 128.714844 209.910156 130.3125 210.558594 C 130.914062 210.800781 130.894531 211.597656 130.769531 212.15625 C 130.253906 214.449219 130.195312 216.828125 129.4375 219.070312 C 129.367188 219.421875 129.230469 219.75 129.03125 220.050781 C 128.832031 220.351562 128.582031 220.601562 128.28125 220.804688 C 127.984375 221.007812 127.660156 221.148438 127.308594 221.222656 C 126.953125 221.300781 126.601562 221.308594 126.246094 221.246094 C 125.570312 221.179688 124.8125 221.074219 124.582031 220.347656 C 124.410156 219.800781 125.039062 219.5 125.386719 219.167969 C 125.765625 218.824219 126.050781 218.410156 126.238281 217.929688 C 126.425781 217.453125 126.5 216.957031 126.457031 216.441406 C 126.375 215.765625 126.382812 215.09375 126.46875 214.417969 C 127.332031 210.199219 125.070312 207.085938 122.667969 204.15625 C 121.058594 201.976562 119.191406 200.046875 117.066406 198.367188 C 115.371094 197.050781 114.089844 195.40625 113.226562 193.441406 C 111.0625 189.058594 108.507812 184.871094 106.53125 180.386719 C 105.71875 178.722656 105.023438 177.007812 104.445312 175.246094 C 103.152344 170.742188 102.828125 166.167969 103.472656 161.527344 C 104.382812 154.949219 105.960938 148.507812 107.25 142.007812 C 107.945312 138.769531 109.140625 135.726562 110.84375 132.886719 C 111.289062 132.15625 111.578125 131.371094 111.714844 130.53125 C 111.851562 129.6875 111.824219 128.851562 111.636719 128.019531 C 111.316406 126.1875 111.195312 124.34375 111.265625 122.484375 C 111.242188 119.78125 111.265625 117.078125 111.21875 114.375 C 111.195312 113.84375 111.25 113.324219 111.386719 112.808594 C 111.523438 112.296875 111.734375 111.816406 112.019531 111.367188 C 112.304688 110.921875 112.652344 110.527344 113.0625 110.1875 C 113.46875 109.847656 113.921875 109.578125 114.414062 109.382812 C 118.15625 107.433594 122.042969 105.84375 126.078125 104.613281 C 127.136719 104.324219 128.148438 103.910156 129.109375 103.375 C 130.363281 102.773438 131.671875 102.613281 133.035156 102.890625 C 133.230469 102.914062 133.398438 103.1875 133.574219 103.34375 C 133.371094 103.4375 133.164062 103.519531 132.953125 103.589844 C 132.578125 103.691406 132.058594 103.574219 132.03125 104.191406 C 132.015625 104.605469 132.375 104.726562 132.660156 104.886719 C 133.398438 105.300781 134.164062 105.660156 134.867188 106.117188 C 135.164062 106.3125 135.621094 106.632812 135.097656 107.097656 C 134.9375 106.917969 134.789062 106.722656 134.613281 106.554688 C 134.371094 106.324219 134.027344 106.105469 133.78125 106.40625 C 133.5 106.75 133.902344 106.957031 134.144531 107.128906 C 134.359375 107.246094 134.578125 107.347656 134.808594 107.421875 C 135.039062 107.757812 135.441406 108.109375 134.839844 108.445312 C 134.5 108.632812 134.136719 108.707031 133.746094 108.664062 C 133.359375 108.625 133.019531 108.476562 132.726562 108.21875 C 131.6875 107.503906 130.617188 106.828125 129.53125 106.1875 C 129.285156 106.027344 129.011719 105.949219 128.71875 105.957031 C 128.421875 105.964844 128.15625 106.058594 127.917969 106.230469 C 123.875 108.65625 120.03125 111.367188 116.382812 114.355469 C 115.953125 114.636719 115.644531 115.015625 115.464844 115.496094 C 115.28125 115.976562 115.257812 116.464844 115.394531 116.960938 C 115.738281 118.691406 116.144531 120.390625 116.542969 122.105469 C 117.199219 124.945312 117.917969 127.792969 117.28125 130.792969 C 116.917969 132.5 117.324219 134.320312 116.824219 136.046875 C 116.835938 136.222656 116.921875 136.351562 117.074219 136.433594 C 117.199219 136.480469 117.324219 136.472656 117.445312 136.414062 C 117.566406 136.355469 117.644531 136.257812 117.683594 136.128906 C 118.105469 134.757812 118.339844 133.355469 118.378906 131.917969 C 118.320312 129.882812 118.378906 129.839844 120.425781 129.292969 C 122.21875 128.847656 123.921875 128.175781 125.539062 127.28125 C 126.117188 127.027344 126.71875 126.859375 127.34375 126.773438 C 127.96875 126.6875 128.59375 126.6875 129.21875 126.777344 C 129.839844 126.867188 130.441406 127.039062 131.019531 127.296875 C 131.59375 127.554688 132.125 127.882812 132.609375 128.289062 C 133.71875 129.449219 134.003906 133.035156 133.101562 134.488281 C 132.792969 134.9375 132.425781 135.332031 132.003906 135.667969 C 131.578125 136.007812 131.113281 136.273438 130.605469 136.472656 C 130.101562 136.671875 129.578125 136.792969 129.035156 136.832031 C 128.496094 136.875 127.960938 136.835938 127.429688 136.71875 C 126.042969 136.351562 124.722656 135.820312 123.472656 135.121094 C 122.957031 134.875 122.46875 134.453125 121.824219 134.613281 C 121.75 134.632812 121.640625 134.679688 121.617188 134.738281 C 121.578125 134.875 121.515625 135.109375 121.582031 135.15625 C 121.894531 135.433594 122.246094 135.652344 122.625 135.824219 C 126.007812 137.035156 127.5 139.734375 128.304688 142.988281 C 129.179688 146.511719 130.460938 149.882812 132.152344 153.097656 C 133.167969 154.859375 134.425781 156.425781 135.925781 157.800781 C 137.625 159.433594 139.4375 160.933594 141.359375 162.296875 C 141.90625 162.710938 142.5 163.226562 143.179688 162.992188 C 144.695312 162.476562 145.707031 163.589844 146.933594 164 C 147.050781 164.039062 147.121094 164.222656 147.214844 164.339844 C 147.0625 164.402344 146.90625 164.445312 146.746094 164.472656 C 146.089844 164.515625 145.035156 164.140625 144.875 164.714844 C 144.632812 165.605469 145.648438 166.152344 146.347656 166.488281 C 148.320312 167.429688 147.921875 169.207031 147.894531 170.761719 C 147.875 171.882812 147.113281 172.140625 146.15625 171.546875 C 145.777344 171.351562 145.449219 171.097656 145.171875 170.777344 C 144.1875 169.398438 142.816406 168.308594 141.933594 166.910156 C 140.957031 165.488281 139.667969 164.457031 138.0625 163.820312 C 136.390625 163.019531 134.878906 161.980469 133.53125 160.699219 C 132.488281 159.726562 131.347656 158.855469 130.257812 157.933594 C 129.539062 157.320312 129.003906 156.574219 128.652344 155.695312 C 126.984375 151.617188 124.007812 148.542969 120.898438 145.570312 C 120.742188 145.421875 120.386719 145.28125 120.238281 145.359375 C 119.785156 145.601562 120.082031 145.992188 120.296875 146.148438 C 121.480469 147.019531 120.898438 147.792969 120.3125 148.699219 C 118.808594 151.03125 117.367188 153.40625 115.929688 155.78125 C 115.199219 157.113281 114.617188 158.507812 114.195312 159.96875 Z M 114.195312 159.976562 " fill-opacity="1" fill-rule="nonzero"/><g clip-path="url(#803dc05a2a)"><path fill="#594a42" d="M 106.5 187.90625 C 106.511719 189.546875 106.09375 191.074219 105.25 192.480469 C 104.359375 194.199219 103.398438 195.882812 102.410156 197.550781 C 100.96875 200.054688 100.019531 202.734375 99.5625 205.589844 C 99.382812 206.726562 99.429688 207.859375 99.703125 208.976562 C 99.972656 210.097656 100.445312 211.125 101.125 212.058594 C 102.25 213.652344 101.941406 215.007812 101.457031 216.554688 C 101.425781 216.722656 101.363281 216.878906 101.273438 217.023438 C 101.183594 217.167969 101.070312 217.292969 100.933594 217.394531 C 100.800781 217.496094 100.648438 217.570312 100.484375 217.617188 C 100.320312 217.664062 100.15625 217.679688 99.984375 217.664062 C 99.195312 217.636719 98.441406 217.480469 98.132812 216.640625 C 97.863281 216.019531 97.695312 215.375 97.625 214.703125 C 97.503906 212.09375 97.171875 209.515625 96.628906 206.964844 C 96.519531 206.367188 96.566406 205.785156 96.765625 205.210938 C 98.574219 199.519531 99.527344 193.617188 101.09375 187.863281 C 101.84375 185.09375 103.234375 182.554688 103.765625 179.726562 C 103.769531 179.628906 103.816406 179.558594 103.898438 179.511719 C 103.980469 179.46875 104.066406 179.464844 104.148438 179.511719 C 104.21875 179.535156 104.3125 179.589844 104.324219 179.648438 C 104.863281 182.28125 106.273438 184.671875 106.507812 187.386719 C 106.511719 187.566406 106.5 187.738281 106.5 187.90625 Z M 106.5 187.90625 " fill-opacity="1" fill-rule="nonzero"/></g><path fill="#000000" d="M 114.195312 159.980469 L 114.550781 160.519531 C 114.097656 160.558594 114.347656 160.136719 114.195312 159.976562 Z M 114.195312 159.980469 " fill-opacity="1" fill-rule="nonzero"/><path fill="#000000" d="M 203.304688 95.585938 L 203.507812 95.707031 L 203.320312 95.570312 Z M 203.304688 95.585938 " fill-opacity="1" fill-rule="nonzero"/><g fill="#5b4949" fill-opacity="1"><g transform="translate(66.29714, 257.874489)"><g><path d="M 8.191406 -6.089844 C 13.3125 -5.671875 15.414062 -7.664062 15.414062 -10.519531 C 15.414062 -13.503906 13.273438 -14.910156 8.464844 -14.910156 C 5.984375 -14.910156 3.695312 -14.699219 2.183594 -14.699219 C 1.742188 -14.722656 1.050781 -14.722656 0.671875 -14.761719 C 0.484375 -14.761719 0.460938 -14.554688 0.671875 -14.554688 C 1.40625 -14.53125 2.203125 -13.628906 2.203125 -11.257812 L 2.203125 -3.445312 C 2.203125 -1.070312 1.40625 -0.167969 0.671875 -0.148438 C 0.460938 -0.148438 0.484375 0.0625 0.671875 0.0625 C 1.050781 0.0195312 1.742188 0.0195312 2.183594 0 L 7.246094 0 C 7.8125 0.0195312 8.714844 0.0195312 9.199219 0.0625 C 9.449219 0.0625 9.472656 -0.148438 9.199219 -0.148438 C 8.253906 -0.167969 7.203125 -1.070312 7.203125 -3.445312 L 7.203125 -13.816406 C 7.203125 -14.488281 7.351562 -14.699219 7.9375 -14.699219 L 7.960938 -14.699219 C 9.21875 -14.699219 9.976562 -11.992188 9.996094 -10.078125 C 10.015625 -8.085938 9.261719 -6.34375 7.894531 -6.34375 L 7.664062 -6.34375 C 7.476562 -6.34375 7.496094 -6.152344 7.644531 -6.132812 Z M 8.191406 -6.089844 "/></g></g></g><g fill="#5b4949" fill-opacity="1"><g transform="translate(84.798209, 257.874489)"><g><path d="M 8.925781 0 C 11.800781 0 12.808594 0.398438 13.441406 0.355469 C 13.816406 0.335938 13.984375 0.167969 13.984375 -0.292969 C 13.984375 -1.742188 14.027344 -3.84375 14.40625 -6.300781 C 14.425781 -6.382812 14.320312 -6.574219 14.238281 -6.320312 C 13.691406 -4.683594 12.789062 -3.402344 11.84375 -2.457031 C 10.3125 -0.902344 8.609375 -0.210938 7.980469 -0.210938 C 7.328125 -0.210938 7.183594 -0.714844 7.183594 -1.660156 L 7.183594 -6.972656 C 7.183594 -7.246094 7.265625 -7.664062 7.644531 -7.664062 C 7.8125 -7.664062 8.042969 -7.644531 8.167969 -7.621094 C 9.136719 -7.496094 9.996094 -6.46875 10.667969 -4.660156 C 10.730469 -4.492188 10.878906 -4.535156 10.855469 -4.660156 C 10.625 -6.046875 10.542969 -9.199219 10.753906 -10.667969 C 10.773438 -10.816406 10.625 -10.855469 10.5625 -10.667969 C 9.953125 -8.863281 9.136719 -8.042969 8.167969 -7.917969 C 8.042969 -7.894531 7.8125 -7.875 7.644531 -7.875 C 7.265625 -7.875 7.183594 -8.296875 7.183594 -8.566406 L 7.183594 -13.417969 C 7.183594 -13.882812 7.328125 -14.488281 7.980469 -14.488281 C 8.503906 -14.488281 9.828125 -14.132812 11.320312 -12.453125 C 12.136719 -11.507812 12.914062 -10.269531 13.882812 -8.191406 C 13.945312 -8.0625 14.050781 -8.128906 14.027344 -8.253906 C 13.777344 -10.816406 13.648438 -12.769531 13.566406 -14.40625 C 13.546875 -14.867188 13.398438 -15.058594 13.019531 -15.058594 C 12.390625 -15.058594 11.171875 -14.699219 8.714844 -14.699219 L 2.183594 -14.699219 C 1.742188 -14.722656 1.050781 -14.722656 0.671875 -14.761719 C 0.484375 -14.761719 0.460938 -14.554688 0.671875 -14.554688 C 1.40625 -14.53125 2.203125 -13.628906 2.203125 -11.257812 L 2.203125 -3.445312 C 2.203125 -1.070312 1.40625 -0.167969 0.671875 -0.148438 C 0.460938 -0.148438 0.484375 0.0625 0.671875 0.0625 C 1.050781 0.0195312 1.742188 0.0195312 2.183594 0 Z M 8.925781 0 "/></g></g></g><g fill="#5b4949" fill-opacity="1"><g transform="translate(102.29127, 257.874489)"><g><path d="M 17.515625 0.859375 C 15.6875 0.484375 14.425781 -3.191406 13.777344 -6.34375 C 13.734375 -6.550781 13.546875 -6.699219 13.335938 -6.679688 C 12.011719 -6.53125 10.648438 -6.53125 9.367188 -6.65625 L 9.367188 -6.71875 C 13.714844 -6.972656 15.792969 -8.148438 15.792969 -10.625 C 15.792969 -13.609375 13.480469 -14.910156 8.671875 -14.910156 C 6.195312 -14.910156 3.695312 -14.699219 2.183594 -14.699219 C 1.742188 -14.722656 1.050781 -14.722656 0.671875 -14.761719 C 0.484375 -14.761719 0.460938 -14.554688 0.671875 -14.554688 C 1.40625 -14.53125 2.203125 -13.628906 2.203125 -11.257812 L 2.203125 -3.445312 C 2.203125 -1.070312 1.40625 -0.167969 0.671875 -0.148438 C 0.460938 -0.148438 0.484375 0.0625 0.671875 0.0625 C 1.050781 0.0195312 1.742188 0.0195312 2.183594 0 L 7.222656 0 C 7.664062 0.0195312 8.359375 0.0195312 8.734375 0.0625 C 8.925781 0.0625 8.945312 -0.148438 8.734375 -0.148438 C 8 -0.167969 7.203125 -1.070312 7.203125 -3.445312 L 7.203125 -13.839844 C 7.203125 -14.511719 7.351562 -14.699219 7.9375 -14.699219 L 7.960938 -14.699219 C 8.945312 -14.699219 10.121094 -13.691406 10.121094 -11.109375 C 10.121094 -8.609375 9.722656 -7.328125 7.8125 -7.015625 L 7.6875 -6.992188 C 7.519531 -6.972656 7.519531 -6.847656 7.664062 -6.824219 L 7.9375 -6.78125 C 10.753906 -0.902344 12.726562 0.210938 17.492188 1.050781 C 17.660156 1.070312 17.683594 0.902344 17.515625 0.859375 Z M 17.515625 0.859375 "/></g></g></g><g fill="#5b4949" fill-opacity="1"><g transform="translate(121.548336, 257.874489)"><g><path d="M 2.183594 0 L 7.222656 0 C 7.789062 0.0195312 8.695312 0.0195312 9.175781 0.0625 C 9.429688 0.0625 9.449219 -0.125 9.175781 -0.148438 C 8.316406 -0.230469 7.183594 -0.859375 7.183594 -3.234375 L 7.183594 -6.320312 C 7.183594 -6.59375 7.265625 -7.015625 7.644531 -7.015625 C 7.8125 -7.015625 8 -7.015625 8.378906 -6.972656 C 9.34375 -6.867188 10.183594 -6.027344 10.855469 -4.222656 C 10.921875 -4.054688 11.089844 -4.09375 11.066406 -4.222656 C 10.835938 -5.605469 10.753906 -8.335938 10.960938 -9.808594 C 10.984375 -9.953125 10.816406 -9.996094 10.753906 -9.808594 C 10.144531 -8 9.34375 -7.371094 8.378906 -7.265625 C 8 -7.222656 7.8125 -7.222656 7.644531 -7.222656 C 7.265625 -7.222656 7.183594 -7.644531 7.183594 -7.9375 L 7.183594 -12.832031 C 7.183594 -13.753906 7.246094 -14.488281 8.042969 -14.488281 C 8.441406 -14.488281 8.945312 -14.257812 9.597656 -13.882812 C 10.792969 -13.1875 12.789062 -11.046875 13.628906 -9.175781 C 13.691406 -9.007812 13.859375 -9.050781 13.839844 -9.21875 C 13.566406 -11.296875 13.566406 -12.726562 13.566406 -14.40625 C 13.566406 -14.867188 13.398438 -15.058594 13.019531 -15.058594 C 12.390625 -15.058594 11.171875 -14.699219 8.925781 -14.699219 L 2.183594 -14.699219 C 1.742188 -14.722656 1.050781 -14.722656 0.671875 -14.761719 C 0.484375 -14.761719 0.460938 -14.574219 0.671875 -14.554688 C 1.34375 -14.46875 2.203125 -13.628906 2.203125 -11.257812 L 2.203125 -3.445312 C 2.203125 -1.070312 1.34375 -0.230469 0.671875 -0.148438 C 0.460938 -0.125 0.484375 0.0625 0.671875 0.0625 C 1.050781 0.0195312 1.742188 0.0195312 2.183594 0 Z M 2.183594 0 "/></g></g></g><g fill="#5b4949" fill-opacity="1"><g transform="translate(138.474387, 257.874489)"><g><path d="M 8.589844 0.421875 C 13.796875 0.421875 17.765625 -2.980469 17.765625 -7.621094 C 17.765625 -11.992188 14.363281 -15.121094 9.472656 -15.121094 C 4.390625 -15.121094 0.523438 -11.761719 0.523438 -7.078125 C 0.523438 -2.6875 3.820312 0.421875 8.589844 0.421875 Z M 11.949219 -0.421875 C 8.609375 -0.421875 4.996094 -7.917969 4.996094 -12.871094 C 4.996094 -13.945312 5.523438 -14.300781 6.257812 -14.300781 C 9.660156 -14.300781 13.273438 -6.867188 13.273438 -1.890625 C 13.273438 -0.859375 12.769531 -0.421875 11.949219 -0.421875 Z M 11.949219 -0.421875 "/></g></g></g><g fill="#5b4949" fill-opacity="1"><g transform="translate(159.642465, 257.874489)"><g><path d="M 17.515625 0.859375 C 15.6875 0.484375 14.425781 -3.191406 13.777344 -6.34375 C 13.734375 -6.550781 13.546875 -6.699219 13.335938 -6.679688 C 12.011719 -6.53125 10.648438 -6.53125 9.367188 -6.65625 L 9.367188 -6.71875 C 13.714844 -6.972656 15.792969 -8.148438 15.792969 -10.625 C 15.792969 -13.609375 13.480469 -14.910156 8.671875 -14.910156 C 6.195312 -14.910156 3.695312 -14.699219 2.183594 -14.699219 C 1.742188 -14.722656 1.050781 -14.722656 0.671875 -14.761719 C 0.484375 -14.761719 0.460938 -14.554688 0.671875 -14.554688 C 1.40625 -14.53125 2.203125 -13.628906 2.203125 -11.257812 L 2.203125 -3.445312 C 2.203125 -1.070312 1.40625 -0.167969 0.671875 -0.148438 C 0.460938 -0.148438 0.484375 0.0625 0.671875 0.0625 C 1.050781 0.0195312 1.742188 0.0195312 2.183594 0 L 7.222656 0 C 7.664062 0.0195312 8.359375 0.0195312 8.734375 0.0625 C 8.925781 0.0625 8.945312 -0.148438 8.734375 -0.148438 C 8 -0.167969 7.203125 -1.070312 7.203125 -3.445312 L 7.203125 -13.839844 C 7.203125 -14.511719 7.351562 -14.699219 7.9375 -14.699219 L 7.960938 -14.699219 C 8.945312 -14.699219 10.121094 -13.691406 10.121094 -11.109375 C 10.121094 -8.609375 9.722656 -7.328125 7.8125 -7.015625 L 7.6875 -6.992188 C 7.519531 -6.972656 7.519531 -6.847656 7.664062 -6.824219 L 7.9375 -6.78125 C 10.753906 -0.902344 12.726562 0.210938 17.492188 1.050781 C 17.660156 1.070312 17.683594 0.902344 17.515625 0.859375 Z M 17.515625 0.859375 "/></g></g></g><g fill="#5b4949" fill-opacity="1"><g transform="translate(178.899534, 257.874489)"><g><path d="M 19.488281 -0.148438 C 18.753906 -0.167969 17.933594 -1.070312 17.617188 -3.421875 L 16.570312 -11.277344 C 16.253906 -13.628906 17.113281 -14.53125 17.933594 -14.554688 C 18.164062 -14.554688 18.144531 -14.761719 17.933594 -14.761719 C 17.515625 -14.722656 16.757812 -14.722656 16.253906 -14.699219 L 12.410156 -14.699219 C 12.304688 -14.699219 12.179688 -14.617188 12.117188 -14.449219 L 9.828125 -8.167969 C 9.808594 -8.105469 9.765625 -8.0625 9.722656 -8.0625 C 9.679688 -8.0625 9.640625 -8.105469 9.617188 -8.167969 L 7.371094 -14.300781 C 7.265625 -14.574219 7.035156 -14.699219 6.71875 -14.699219 L 2.4375 -14.699219 C 1.996094 -14.722656 1.300781 -14.722656 0.925781 -14.761719 C 0.734375 -14.761719 0.714844 -14.554688 0.925781 -14.554688 C 1.574219 -14.53125 2.289062 -13.839844 3.046875 -12.179688 L 1.972656 -3.421875 C 1.679688 -1.070312 0.882812 -0.167969 0.148438 -0.148438 C -0.0625 -0.148438 -0.0429688 0.0625 0.148438 0.0625 C 0.523438 0.0195312 1.21875 0.0195312 1.660156 0 L 1.996094 0 C 2.710938 0.0195312 3.800781 0.0195312 4.410156 0.0625 C 4.726562 0.0625 4.746094 -0.148438 4.410156 -0.148438 C 3.234375 -0.167969 1.953125 -1.070312 2.226562 -3.421875 L 3.128906 -11.234375 C 3.148438 -11.359375 3.214844 -11.402344 3.277344 -11.402344 C 3.339844 -11.402344 3.402344 -11.382812 3.445312 -11.277344 L 7.328125 -0.988281 C 7.371094 -0.902344 7.414062 -0.839844 7.476562 -0.839844 C 7.539062 -0.839844 7.558594 -0.882812 7.601562 -0.988281 L 11.191406 -11.234375 C 11.234375 -11.339844 11.277344 -11.402344 11.359375 -11.402344 C 11.445312 -11.402344 11.488281 -11.359375 11.507812 -11.234375 L 12.578125 -3.421875 C 12.894531 -1.070312 11.613281 -0.167969 10.4375 -0.148438 C 10.101562 -0.148438 10.121094 0.0625 10.4375 0.0625 C 11.046875 0.0195312 12.136719 0.0195312 12.851562 0 L 17.953125 0 C 18.394531 0.0195312 19.089844 0.0195312 19.46875 0.0625 C 19.65625 0.0625 19.699219 -0.148438 19.488281 -0.148438 Z M 3.339844 -11.488281 C 3.339844 -11.464844 3.359375 -11.464844 3.359375 -11.445312 Z M 3.339844 -11.488281 "/></g></g></g><g fill="#5b4949" fill-opacity="1"><g transform="translate(201.411617, 257.874489)"><g><path d="M 2.203125 -3.445312 C 2.203125 -1.070312 1.40625 -0.167969 0.671875 -0.148438 C 0.460938 -0.148438 0.484375 0.0625 0.671875 0.0625 C 1.050781 0.0195312 1.742188 0.0195312 2.183594 0 L 7.222656 0 C 7.664062 0.0195312 8.359375 0.0195312 8.734375 0.0625 C 8.925781 0.0625 8.945312 -0.148438 8.734375 -0.148438 C 8 -0.167969 7.203125 -1.070312 7.203125 -3.445312 L 7.203125 -11.257812 C 7.203125 -13.628906 8 -14.53125 8.734375 -14.554688 C 8.945312 -14.554688 8.925781 -14.761719 8.734375 -14.761719 C 8.359375 -14.722656 7.664062 -14.722656 7.222656 -14.699219 L 2.183594 -14.699219 C 1.742188 -14.722656 1.050781 -14.722656 0.671875 -14.761719 C 0.484375 -14.761719 0.460938 -14.554688 0.671875 -14.554688 C 1.40625 -14.53125 2.203125 -13.628906 2.203125 -11.257812 Z M 2.203125 -3.445312 "/></g></g></g><g fill="#5b4949" fill-opacity="1"><g transform="translate(213.696655, 257.874489)"><g><path d="M 16.296875 -14.761719 C 15.917969 -14.722656 15.226562 -14.722656 14.785156 -14.699219 L 14.46875 -14.699219 C 14.027344 -14.722656 13.335938 -14.722656 12.957031 -14.761719 C 12.769531 -14.761719 12.726562 -14.554688 12.9375 -14.554688 C 13.671875 -14.53125 14.46875 -13.628906 14.488281 -11.257812 L 14.511719 -7.140625 C 14.511719 -7.035156 14.488281 -6.972656 14.40625 -6.972656 C 14.363281 -6.972656 14.28125 -7.015625 14.21875 -7.078125 L 8 -14.28125 C 7.769531 -14.554688 7.453125 -14.699219 6.867188 -14.699219 L 2.183594 -14.722656 L 0.671875 -14.785156 C 0.484375 -14.785156 0.460938 -14.574219 0.671875 -14.574219 C 1.21875 -14.554688 1.828125 -14.070312 2.730469 -13.082031 L 2.710938 -3.421875 C 2.710938 -1.050781 1.910156 -0.148438 1.175781 -0.125 C 0.964844 -0.125 0.988281 0.0859375 1.175781 0.0859375 C 1.554688 0.0429688 2.246094 0.0429688 2.6875 0.0195312 L 3.023438 0.0195312 C 3.464844 0.0429688 4.15625 0.0429688 4.535156 0.0859375 C 4.726562 0.0859375 4.746094 -0.125 4.535156 -0.125 C 3.800781 -0.148438 3.003906 -1.050781 3.003906 -3.421875 L 2.980469 -12.328125 C 2.980469 -12.453125 3.046875 -12.496094 3.109375 -12.496094 C 3.148438 -12.496094 3.214844 -12.472656 3.277344 -12.410156 L 14.386719 0.230469 C 14.46875 0.316406 14.53125 0.355469 14.617188 0.355469 C 14.699219 0.355469 14.761719 0.292969 14.761719 0.210938 L 14.761719 -11.257812 C 14.761719 -13.628906 15.5625 -14.53125 16.296875 -14.554688 C 16.507812 -14.554688 16.484375 -14.761719 16.296875 -14.761719 Z M 3.171875 -12.601562 C 3.359375 -12.390625 3.570312 -12.136719 3.800781 -11.886719 Z M 3.171875 -12.601562 "/></g></g></g><g fill="#5b4949" fill-opacity="1"><g transform="translate(233.289716, 257.874489)"><g><path d="M 15.097656 -7.140625 C 14.386719 -7.078125 13.398438 -7.054688 12.328125 -7.054688 L 14.910156 -13.019531 C 15.289062 -13.882812 12.367188 -15.121094 8.800781 -15.121094 C 4.199219 -15.121094 0.523438 -11.257812 0.523438 -7.078125 C 0.523438 -2.457031 4.179688 0.421875 8.359375 0.421875 C 10.773438 0.421875 13.417969 -0.546875 15.203125 -2.667969 C 15.371094 -2.878906 15.457031 -3.023438 15.457031 -3.382812 C 15.457031 -4.996094 15.476562 -5.335938 15.582031 -5.796875 C 15.6875 -6.195312 15.75 -6.511719 15.75 -6.824219 C 15.75 -7.097656 15.5625 -7.183594 15.097656 -7.140625 Z M 11.613281 -0.503906 C 8.527344 -0.503906 4.871094 -7.476562 4.871094 -12.851562 C 4.871094 -13.964844 5.398438 -14.363281 6.320312 -14.363281 C 7.558594 -14.363281 9.40625 -13.1875 10.667969 -11.527344 C 11.65625 -10.207031 12.328125 -8.609375 12.054688 -7.054688 C 10.648438 -7.097656 9.15625 -7.183594 8.085938 -7.351562 C 7.894531 -7.371094 7.855469 -7.203125 8.042969 -7.140625 C 9.449219 -6.636719 10.667969 -5.671875 11.488281 -4.578125 C 12.136719 -3.695312 12.683594 -2.4375 12.683594 -1.429688 C 12.683594 -0.839844 12.222656 -0.503906 11.613281 -0.503906 Z M 11.613281 -0.503906 "/></g></g></g><g fill="#5b4949" fill-opacity="1"><g transform="translate(251.916783, 257.874489)"><g/></g></g><g fill="#5b4949" fill-opacity="1"><g transform="translate(260.673812, 257.874489)"><g><path d="M 16.128906 -0.148438 C 15.625 -0.167969 15.058594 -1.070312 14.175781 -3.277344 L 9.722656 -14.363281 C 9.597656 -14.679688 9.40625 -14.699219 9.15625 -14.699219 L 3.949219 -14.699219 C 3.820312 -14.699219 3.800781 -14.554688 3.949219 -14.554688 C 4.304688 -14.554688 4.472656 -14.320312 4.535156 -14.132812 L 5.1875 -12.515625 C 5.3125 -12.136719 5.4375 -11.570312 5.230469 -11.046875 L 2.164062 -3.277344 C 1.28125 -1.070312 0.714844 -0.167969 0.210938 -0.148438 C 0.0625 -0.148438 0.0859375 0.0625 0.210938 0.0625 C 0.484375 0.0195312 0.964844 0.0195312 1.261719 0 L 1.511719 0 C 2.121094 0.0195312 3.109375 0.0195312 3.632812 0.0625 C 3.886719 0.0625 3.925781 -0.148438 3.632812 -0.148438 C 2.667969 -0.167969 1.597656 -0.988281 2.246094 -2.941406 C 2.332031 -3.046875 2.4375 -3.085938 2.5625 -3.085938 C 4.324219 -3.171875 6.425781 -3.613281 8.0625 -4.261719 C 8.167969 -4.304688 8.335938 -4.324219 8.503906 -4.199219 L 8.882812 -3.277344 C 9.765625 -1.070312 8.734375 -0.167969 7.769531 -0.148438 C 7.496094 -0.148438 7.539062 0.0625 7.789062 0.0625 C 8.273438 0.0195312 9.175781 0.0195312 9.742188 0 L 15.058594 0 C 15.371094 0.0195312 15.855469 0.0195312 16.128906 0.0625 C 16.253906 0.0625 16.273438 -0.148438 16.128906 -0.148438 Z M 7.980469 -4.472656 C 6.425781 -3.78125 4.304688 -3.382812 2.605469 -3.296875 C 2.457031 -3.296875 2.414062 -3.339844 2.457031 -3.464844 L 5.605469 -11.445312 L 8.253906 -4.871094 L 8.230469 -4.871094 C 8.316406 -4.726562 8.167969 -4.558594 7.980469 -4.472656 Z M 7.980469 -4.472656 "/></g></g></g><g fill="#5b4949" fill-opacity="1"><g transform="translate(279.888876, 257.874489)"><g><path d="M 17.515625 0.859375 C 15.6875 0.484375 14.425781 -3.191406 13.777344 -6.34375 C 13.734375 -6.550781 13.546875 -6.699219 13.335938 -6.679688 C 12.011719 -6.53125 10.648438 -6.53125 9.367188 -6.65625 L 9.367188 -6.71875 C 13.714844 -6.972656 15.792969 -8.148438 15.792969 -10.625 C 15.792969 -13.609375 13.480469 -14.910156 8.671875 -14.910156 C 6.195312 -14.910156 3.695312 -14.699219 2.183594 -14.699219 C 1.742188 -14.722656 1.050781 -14.722656 0.671875 -14.761719 C 0.484375 -14.761719 0.460938 -14.554688 0.671875 -14.554688 C 1.40625 -14.53125 2.203125 -13.628906 2.203125 -11.257812 L 2.203125 -3.445312 C 2.203125 -1.070312 1.40625 -0.167969 0.671875 -0.148438 C 0.460938 -0.148438 0.484375 0.0625 0.671875 0.0625 C 1.050781 0.0195312 1.742188 0.0195312 2.183594 0 L 7.222656 0 C 7.664062 0.0195312 8.359375 0.0195312 8.734375 0.0625 C 8.925781 0.0625 8.945312 -0.148438 8.734375 -0.148438 C 8 -0.167969 7.203125 -1.070312 7.203125 -3.445312 L 7.203125 -13.839844 C 7.203125 -14.511719 7.351562 -14.699219 7.9375 -14.699219 L 7.960938 -14.699219 C 8.945312 -14.699219 10.121094 -13.691406 10.121094 -11.109375 C 10.121094 -8.609375 9.722656 -7.328125 7.8125 -7.015625 L 7.6875 -6.992188 C 7.519531 -6.972656 7.519531 -6.847656 7.664062 -6.824219 L 7.9375 -6.78125 C 10.753906 -0.902344 12.726562 0.210938 17.492188 1.050781 C 17.660156 1.070312 17.683594 0.902344 17.515625 0.859375 Z M 17.515625 0.859375 "/></g></g></g><g fill="#5b4949" fill-opacity="1"><g transform="translate(299.14594, 257.874489)"><g><path d="M 15.289062 -9.21875 C 15.035156 -11.296875 15.058594 -12.726562 15.203125 -14.40625 C 15.246094 -14.867188 15.035156 -15.058594 14.65625 -15.058594 C 13.921875 -15.058594 12.746094 -14.699219 10.351562 -14.699219 L 5.355469 -14.699219 C 2.960938 -14.699219 1.785156 -15.058594 1.050781 -15.058594 C 0.671875 -15.058594 0.460938 -14.867188 0.503906 -14.40625 C 0.652344 -12.726562 0.671875 -11.296875 0.421875 -9.21875 C 0.398438 -9.050781 0.566406 -9.007812 0.628906 -9.175781 C 1.742188 -12.117188 3.109375 -14.007812 4.660156 -14.449219 C 4.808594 -14.488281 4.933594 -14.511719 5.082031 -14.511719 C 5.355469 -14.511719 5.355469 -13.882812 5.355469 -13.714844 L 5.355469 -3.445312 C 5.355469 -1.070312 4.304688 -0.167969 3.359375 -0.148438 C 3.085938 -0.148438 3.109375 0.0625 3.359375 0.0625 C 3.84375 0.0195312 4.746094 0.0195312 5.3125 0 L 10.394531 0 C 10.960938 0.0195312 11.863281 0.0195312 12.347656 0.0625 C 12.601562 0.0625 12.621094 -0.148438 12.347656 -0.148438 C 11.402344 -0.167969 10.351562 -1.070312 10.351562 -3.445312 L 10.351562 -13.714844 C 10.351562 -13.882812 10.351562 -14.511719 10.625 -14.511719 C 10.773438 -14.511719 10.898438 -14.488281 11.046875 -14.449219 C 12.601562 -14.007812 13.902344 -12.097656 15.078125 -9.175781 C 15.140625 -9.007812 15.308594 -9.050781 15.289062 -9.21875 Z M 15.289062 -9.21875 "/></g></g></g><g fill="#5b4949" fill-opacity="1"><g transform="translate(317.731006, 257.874489)"><g><path d="M 0.988281 -2.269531 C 0.503906 -0.925781 3.757812 0.421875 6.46875 0.421875 C 10.648438 0.421875 13.460938 -1.238281 13.460938 -4.222656 C 13.460938 -6.78125 11.425781 -8.335938 9.492188 -9.722656 C 7.371094 -11.234375 6.109375 -12.265625 6.109375 -13.628906 C 6.109375 -14.511719 6.46875 -14.847656 7.371094 -14.847656 C 9.492188 -14.847656 11.738281 -11.949219 11.738281 -9.324219 C 11.738281 -9.09375 11.863281 -9.050781 11.929688 -9.238281 L 13.25 -12.851562 C 13.734375 -14.175781 10.480469 -15.121094 8.421875 -15.121094 C 4.578125 -15.121094 1.53125 -13.292969 1.53125 -10.921875 C 1.53125 -8.882812 3.382812 -7.371094 5.671875 -5.648438 C 7.203125 -4.492188 8.671875 -3.234375 8.671875 -1.46875 C 8.671875 -0.355469 8.0625 0.1875 7.035156 0.1875 C 4.472656 0.1875 2.792969 -2.941406 2.792969 -6.699219 C 2.792969 -6.886719 2.6875 -6.910156 2.625 -6.742188 Z M 0.988281 -2.269531 "/></g></g></g></svg>